<mxfile host="app.diagrams.net" modified="2024-03-22T13:09:39.204Z" agent="Mozilla/5.0 (X11; Linux x86_64) AppleWebKit/537.36 (KHTML, like Gecko) Chrome/120.0.0.0 YaBrowser/24.1.0.0 Safari/537.36" etag="j8AwJNDSG_kaHgAIMIyy" version="24.0.7" type="device" pages="4">
  <diagram name="Страница — 1" id="kS00LMcr83VMIw42Cqs0">
    <mxGraphModel dx="2074" dy="1159" grid="1" gridSize="10" guides="1" tooltips="1" connect="1" arrows="1" fold="1" page="1" pageScale="1" pageWidth="827" pageHeight="1169" math="0" shadow="0">
      <root>
        <mxCell id="0" />
        <mxCell id="1" parent="0" />
        <mxCell id="foTWOBQvS2BgbUqeWsAb-46" style="rounded=0;orthogonalLoop=1;jettySize=auto;html=1;exitX=0.5;exitY=0.5;exitDx=0;exitDy=0;exitPerimeter=0;entryX=0.5;entryY=0;entryDx=0;entryDy=0;endArrow=none;endFill=0;fontSize=14;strokeWidth=1;" parent="1" source="foTWOBQvS2BgbUqeWsAb-1" target="foTWOBQvS2BgbUqeWsAb-10" edge="1">
          <mxGeometry relative="1" as="geometry" />
        </mxCell>
        <mxCell id="foTWOBQvS2BgbUqeWsAb-1" value="Менеджер&amp;nbsp;&lt;br style=&quot;font-size: 14px;&quot;&gt;Инвентаризации" style="shape=umlActor;verticalLabelPosition=bottom;verticalAlign=top;html=1;outlineConnect=0;fontSize=14;strokeWidth=1;" parent="1" vertex="1">
          <mxGeometry x="60" y="240" width="30" height="60" as="geometry" />
        </mxCell>
        <mxCell id="foTWOBQvS2BgbUqeWsAb-40" style="rounded=0;orthogonalLoop=1;jettySize=auto;html=1;exitX=0.5;exitY=0.5;exitDx=0;exitDy=0;exitPerimeter=0;entryX=0.5;entryY=1;entryDx=0;entryDy=0;endArrow=none;endFill=0;fontSize=14;strokeWidth=1;" parent="1" source="foTWOBQvS2BgbUqeWsAb-2" target="foTWOBQvS2BgbUqeWsAb-11" edge="1">
          <mxGeometry relative="1" as="geometry" />
        </mxCell>
        <mxCell id="foTWOBQvS2BgbUqeWsAb-43" style="rounded=0;orthogonalLoop=1;jettySize=auto;html=1;exitX=0.5;exitY=0.5;exitDx=0;exitDy=0;exitPerimeter=0;entryX=1;entryY=0;entryDx=0;entryDy=0;endArrow=none;endFill=0;fontSize=14;strokeWidth=1;" parent="1" source="foTWOBQvS2BgbUqeWsAb-2" target="foTWOBQvS2BgbUqeWsAb-13" edge="1">
          <mxGeometry relative="1" as="geometry" />
        </mxCell>
        <mxCell id="foTWOBQvS2BgbUqeWsAb-2" value="Работник &lt;br style=&quot;font-size: 14px;&quot;&gt;склада" style="shape=umlActor;verticalLabelPosition=bottom;verticalAlign=top;html=1;outlineConnect=0;fontSize=14;strokeWidth=1;" parent="1" vertex="1">
          <mxGeometry x="740" y="300" width="30" height="60" as="geometry" />
        </mxCell>
        <mxCell id="foTWOBQvS2BgbUqeWsAb-3" value="Начальник &lt;br style=&quot;font-size: 14px;&quot;&gt;склада" style="shape=umlActor;verticalLabelPosition=bottom;verticalAlign=top;html=1;outlineConnect=0;fontSize=14;strokeWidth=1;" parent="1" vertex="1">
          <mxGeometry x="380" y="560" width="30" height="60" as="geometry" />
        </mxCell>
        <mxCell id="foTWOBQvS2BgbUqeWsAb-58" style="rounded=0;orthogonalLoop=1;jettySize=auto;html=1;exitX=0.5;exitY=0.5;exitDx=0;exitDy=0;exitPerimeter=0;entryX=0;entryY=0;entryDx=0;entryDy=0;endArrow=none;endFill=0;fontSize=14;strokeWidth=1;" parent="1" source="foTWOBQvS2BgbUqeWsAb-5" target="foTWOBQvS2BgbUqeWsAb-13" edge="1">
          <mxGeometry relative="1" as="geometry" />
        </mxCell>
        <mxCell id="foTWOBQvS2BgbUqeWsAb-5" value="АИС" style="shape=umlActor;verticalLabelPosition=bottom;verticalAlign=top;html=1;outlineConnect=0;fontSize=14;strokeWidth=1;" parent="1" vertex="1">
          <mxGeometry x="460" y="110" width="30" height="60" as="geometry" />
        </mxCell>
        <mxCell id="foTWOBQvS2BgbUqeWsAb-7" style="rounded=0;orthogonalLoop=1;jettySize=auto;html=1;exitX=0;exitY=0.5;exitDx=0;exitDy=0;exitPerimeter=0;entryX=0.5;entryY=0.5;entryDx=0;entryDy=0;entryPerimeter=0;fontSize=14;strokeWidth=1;" parent="1" source="foTWOBQvS2BgbUqeWsAb-6" target="foTWOBQvS2BgbUqeWsAb-5" edge="1">
          <mxGeometry relative="1" as="geometry" />
        </mxCell>
        <mxCell id="foTWOBQvS2BgbUqeWsAb-6" value="автоматизированная информационная&lt;br style=&quot;font-size: 14px;&quot;&gt;система" style="shape=note;whiteSpace=wrap;html=1;backgroundOutline=1;darkOpacity=0.05;align=left;fontSize=14;strokeWidth=1;" parent="1" vertex="1">
          <mxGeometry x="510" y="40" width="150" height="70" as="geometry" />
        </mxCell>
        <mxCell id="foTWOBQvS2BgbUqeWsAb-8" value="создание плана поставки" style="ellipse;whiteSpace=wrap;html=1;fontSize=14;strokeWidth=1;" parent="1" vertex="1">
          <mxGeometry x="90" y="120" width="100" height="50" as="geometry" />
        </mxCell>
        <mxCell id="foTWOBQvS2BgbUqeWsAb-47" style="rounded=0;orthogonalLoop=1;jettySize=auto;html=1;exitX=0.5;exitY=1;exitDx=0;exitDy=0;entryX=0.5;entryY=0;entryDx=0;entryDy=0;dashed=1;endArrow=open;endFill=0;fontSize=14;strokeWidth=1;" parent="1" source="foTWOBQvS2BgbUqeWsAb-9" target="foTWOBQvS2BgbUqeWsAb-28" edge="1">
          <mxGeometry relative="1" as="geometry" />
        </mxCell>
        <mxCell id="foTWOBQvS2BgbUqeWsAb-9" value="Внесение данных" style="ellipse;whiteSpace=wrap;html=1;fontSize=14;strokeWidth=1;" parent="1" vertex="1">
          <mxGeometry x="120" y="220" width="100" height="50" as="geometry" />
        </mxCell>
        <mxCell id="foTWOBQvS2BgbUqeWsAb-10" value="Сохранение данных" style="ellipse;whiteSpace=wrap;html=1;fontSize=14;strokeWidth=1;" parent="1" vertex="1">
          <mxGeometry x="50" y="350" width="100" height="50" as="geometry" />
        </mxCell>
        <mxCell id="foTWOBQvS2BgbUqeWsAb-11" value="Приемка продукции" style="ellipse;whiteSpace=wrap;html=1;fontSize=14;strokeWidth=1;" parent="1" vertex="1">
          <mxGeometry x="720" y="170" width="100" height="50" as="geometry" />
        </mxCell>
        <mxCell id="foTWOBQvS2BgbUqeWsAb-12" value="Подсчет&lt;br style=&quot;font-size: 14px;&quot;&gt;продукции" style="ellipse;whiteSpace=wrap;html=1;fontSize=14;strokeWidth=1;" parent="1" vertex="1">
          <mxGeometry x="650" y="115" width="100" height="50" as="geometry" />
        </mxCell>
        <mxCell id="foTWOBQvS2BgbUqeWsAb-13" value="Сохранение данных" style="ellipse;whiteSpace=wrap;html=1;fontSize=14;strokeWidth=1;" parent="1" vertex="1">
          <mxGeometry x="630" y="400" width="100" height="50" as="geometry" />
        </mxCell>
        <mxCell id="foTWOBQvS2BgbUqeWsAb-19" style="rounded=0;orthogonalLoop=1;jettySize=auto;html=1;exitX=1;exitY=0.5;exitDx=0;exitDy=0;entryX=0;entryY=0.5;entryDx=0;entryDy=0;dashed=1;endArrow=open;endFill=0;fontSize=14;strokeWidth=1;" parent="1" source="foTWOBQvS2BgbUqeWsAb-14" target="foTWOBQvS2BgbUqeWsAb-16" edge="1">
          <mxGeometry relative="1" as="geometry" />
        </mxCell>
        <mxCell id="foTWOBQvS2BgbUqeWsAb-20" style="rounded=0;orthogonalLoop=1;jettySize=auto;html=1;exitX=1;exitY=1;exitDx=0;exitDy=0;entryX=0;entryY=0.5;entryDx=0;entryDy=0;dashed=1;endArrow=open;endFill=0;fontSize=14;strokeWidth=1;" parent="1" source="foTWOBQvS2BgbUqeWsAb-14" target="foTWOBQvS2BgbUqeWsAb-17" edge="1">
          <mxGeometry relative="1" as="geometry" />
        </mxCell>
        <mxCell id="foTWOBQvS2BgbUqeWsAb-21" style="rounded=0;orthogonalLoop=1;jettySize=auto;html=1;exitX=0.5;exitY=1;exitDx=0;exitDy=0;entryX=0;entryY=0.5;entryDx=0;entryDy=0;dashed=1;endArrow=open;endFill=0;fontSize=14;strokeWidth=1;" parent="1" source="foTWOBQvS2BgbUqeWsAb-14" target="foTWOBQvS2BgbUqeWsAb-18" edge="1">
          <mxGeometry relative="1" as="geometry" />
        </mxCell>
        <mxCell id="foTWOBQvS2BgbUqeWsAb-14" value="Формирование&amp;nbsp;&lt;br style=&quot;font-size: 14px;&quot;&gt;документов" style="ellipse;whiteSpace=wrap;html=1;fontSize=14;strokeWidth=1;" parent="1" vertex="1">
          <mxGeometry x="400" y="470" width="100" height="50" as="geometry" />
        </mxCell>
        <mxCell id="foTWOBQvS2BgbUqeWsAb-15" value="Мониторинг поступления продукции" style="ellipse;whiteSpace=wrap;html=1;fontSize=14;strokeWidth=1;" parent="1" vertex="1">
          <mxGeometry x="250" y="440" width="100" height="50" as="geometry" />
        </mxCell>
        <mxCell id="foTWOBQvS2BgbUqeWsAb-16" value="сформировать акт принятия товара" style="ellipse;whiteSpace=wrap;html=1;fontSize=14;strokeWidth=1;" parent="1" vertex="1">
          <mxGeometry x="610" y="470" width="100" height="50" as="geometry" />
        </mxCell>
        <mxCell id="foTWOBQvS2BgbUqeWsAb-17" value="сформировать акт расхождения" style="ellipse;whiteSpace=wrap;html=1;fontSize=14;strokeWidth=1;" parent="1" vertex="1">
          <mxGeometry x="610" y="530" width="100" height="50" as="geometry" />
        </mxCell>
        <mxCell id="foTWOBQvS2BgbUqeWsAb-18" value="сформировать акт бракованной продукции" style="ellipse;whiteSpace=wrap;html=1;fontSize=14;strokeWidth=1;" parent="1" vertex="1">
          <mxGeometry x="600" y="590" width="100" height="50" as="geometry" />
        </mxCell>
        <mxCell id="foTWOBQvS2BgbUqeWsAb-33" style="rounded=0;orthogonalLoop=1;jettySize=auto;html=1;exitX=0.5;exitY=0;exitDx=0;exitDy=0;dashed=1;endArrow=open;endFill=0;fontSize=14;strokeWidth=1;" parent="1" source="foTWOBQvS2BgbUqeWsAb-22" edge="1">
          <mxGeometry relative="1" as="geometry">
            <mxPoint x="620" y="200" as="targetPoint" />
          </mxGeometry>
        </mxCell>
        <mxCell id="foTWOBQvS2BgbUqeWsAb-34" style="rounded=0;orthogonalLoop=1;jettySize=auto;html=1;exitX=0;exitY=0.5;exitDx=0;exitDy=0;entryX=1;entryY=0.5;entryDx=0;entryDy=0;dashed=1;endArrow=open;endFill=0;fontSize=14;strokeWidth=1;" parent="1" source="foTWOBQvS2BgbUqeWsAb-22" target="foTWOBQvS2BgbUqeWsAb-26" edge="1">
          <mxGeometry relative="1" as="geometry" />
        </mxCell>
        <mxCell id="foTWOBQvS2BgbUqeWsAb-35" style="rounded=0;orthogonalLoop=1;jettySize=auto;html=1;exitX=0;exitY=1;exitDx=0;exitDy=0;entryX=1;entryY=0.5;entryDx=0;entryDy=0;dashed=1;endArrow=open;endFill=0;fontSize=14;strokeWidth=1;" parent="1" source="foTWOBQvS2BgbUqeWsAb-22" target="foTWOBQvS2BgbUqeWsAb-25" edge="1">
          <mxGeometry relative="1" as="geometry" />
        </mxCell>
        <mxCell id="foTWOBQvS2BgbUqeWsAb-36" style="rounded=0;orthogonalLoop=1;jettySize=auto;html=1;exitX=0.5;exitY=1;exitDx=0;exitDy=0;entryX=1;entryY=0;entryDx=0;entryDy=0;dashed=1;endArrow=open;endFill=0;fontSize=14;strokeWidth=1;" parent="1" source="foTWOBQvS2BgbUqeWsAb-22" target="foTWOBQvS2BgbUqeWsAb-24" edge="1">
          <mxGeometry relative="1" as="geometry" />
        </mxCell>
        <mxCell id="foTWOBQvS2BgbUqeWsAb-37" style="rounded=0;orthogonalLoop=1;jettySize=auto;html=1;exitX=1;exitY=1;exitDx=0;exitDy=0;entryX=0.5;entryY=0;entryDx=0;entryDy=0;dashed=1;endArrow=open;endFill=0;fontSize=14;strokeWidth=1;" parent="1" source="foTWOBQvS2BgbUqeWsAb-22" target="foTWOBQvS2BgbUqeWsAb-23" edge="1">
          <mxGeometry relative="1" as="geometry" />
        </mxCell>
        <mxCell id="foTWOBQvS2BgbUqeWsAb-22" value="Занесение данных" style="ellipse;whiteSpace=wrap;html=1;fontSize=14;strokeWidth=1;" parent="1" vertex="1">
          <mxGeometry x="590" y="220" width="100" height="50" as="geometry" />
        </mxCell>
        <mxCell id="foTWOBQvS2BgbUqeWsAb-23" value="Количество данных" style="ellipse;whiteSpace=wrap;html=1;fontSize=14;strokeWidth=1;" parent="1" vertex="1">
          <mxGeometry x="640" y="330" width="90" height="40" as="geometry" />
        </mxCell>
        <mxCell id="foTWOBQvS2BgbUqeWsAb-24" value="Количество товара" style="ellipse;whiteSpace=wrap;html=1;fontSize=14;strokeWidth=1;" parent="1" vertex="1">
          <mxGeometry x="520" y="390" width="90" height="40" as="geometry" />
        </mxCell>
        <mxCell id="foTWOBQvS2BgbUqeWsAb-25" value="Наименование продукции" style="ellipse;whiteSpace=wrap;html=1;fontSize=14;strokeWidth=1;" parent="1" vertex="1">
          <mxGeometry x="480" y="320" width="90" height="40" as="geometry" />
        </mxCell>
        <mxCell id="foTWOBQvS2BgbUqeWsAb-26" value="Наименование продавца" style="ellipse;whiteSpace=wrap;html=1;fontSize=14;strokeWidth=1;" parent="1" vertex="1">
          <mxGeometry x="470" y="260" width="90" height="40" as="geometry" />
        </mxCell>
        <mxCell id="foTWOBQvS2BgbUqeWsAb-27" value="Регистрационный номер и дата" style="ellipse;whiteSpace=wrap;html=1;fontSize=14;strokeWidth=1;" parent="1" vertex="1">
          <mxGeometry x="560" y="160" width="90" height="40" as="geometry" />
        </mxCell>
        <mxCell id="foTWOBQvS2BgbUqeWsAb-28" value="Количество продукции" style="ellipse;whiteSpace=wrap;html=1;fontSize=14;strokeWidth=1;" parent="1" vertex="1">
          <mxGeometry x="130" y="400" width="100" height="50" as="geometry" />
        </mxCell>
        <mxCell id="foTWOBQvS2BgbUqeWsAb-29" value="Наименование продукции" style="ellipse;whiteSpace=wrap;html=1;fontSize=14;strokeWidth=1;" parent="1" vertex="1">
          <mxGeometry x="210" y="340" width="100" height="50" as="geometry" />
        </mxCell>
        <mxCell id="foTWOBQvS2BgbUqeWsAb-30" value="Данные поставщика" style="ellipse;whiteSpace=wrap;html=1;fontSize=14;strokeWidth=1;" parent="1" vertex="1">
          <mxGeometry x="260" y="280" width="100" height="50" as="geometry" />
        </mxCell>
        <mxCell id="foTWOBQvS2BgbUqeWsAb-31" value="Номер и дата" style="ellipse;whiteSpace=wrap;html=1;fontSize=14;strokeWidth=1;" parent="1" vertex="1">
          <mxGeometry x="220" y="150" width="100" height="40" as="geometry" />
        </mxCell>
        <mxCell id="foTWOBQvS2BgbUqeWsAb-41" style="rounded=0;orthogonalLoop=1;jettySize=auto;html=1;exitX=0.5;exitY=0.5;exitDx=0;exitDy=0;exitPerimeter=0;entryX=0.354;entryY=0.974;entryDx=0;entryDy=0;entryPerimeter=0;endArrow=none;endFill=0;fontSize=14;strokeWidth=1;" parent="1" source="foTWOBQvS2BgbUqeWsAb-2" target="foTWOBQvS2BgbUqeWsAb-12" edge="1">
          <mxGeometry relative="1" as="geometry" />
        </mxCell>
        <mxCell id="foTWOBQvS2BgbUqeWsAb-42" style="rounded=0;orthogonalLoop=1;jettySize=auto;html=1;exitX=0.5;exitY=0.5;exitDx=0;exitDy=0;exitPerimeter=0;entryX=0.948;entryY=0.723;entryDx=0;entryDy=0;entryPerimeter=0;endArrow=none;endFill=0;fontSize=14;strokeWidth=1;" parent="1" source="foTWOBQvS2BgbUqeWsAb-2" target="foTWOBQvS2BgbUqeWsAb-22" edge="1">
          <mxGeometry relative="1" as="geometry" />
        </mxCell>
        <mxCell id="foTWOBQvS2BgbUqeWsAb-44" style="rounded=0;orthogonalLoop=1;jettySize=auto;html=1;exitX=0.5;exitY=0.5;exitDx=0;exitDy=0;exitPerimeter=0;entryX=0.296;entryY=0.964;entryDx=0;entryDy=0;entryPerimeter=0;endArrow=none;endFill=0;fontSize=14;strokeWidth=1;" parent="1" source="foTWOBQvS2BgbUqeWsAb-3" target="foTWOBQvS2BgbUqeWsAb-14" edge="1">
          <mxGeometry relative="1" as="geometry" />
        </mxCell>
        <mxCell id="foTWOBQvS2BgbUqeWsAb-45" style="rounded=0;orthogonalLoop=1;jettySize=auto;html=1;exitX=0.5;exitY=0.5;exitDx=0;exitDy=0;exitPerimeter=0;entryX=0.706;entryY=0.943;entryDx=0;entryDy=0;entryPerimeter=0;endArrow=none;endFill=0;fontSize=14;strokeWidth=1;" parent="1" source="foTWOBQvS2BgbUqeWsAb-3" target="foTWOBQvS2BgbUqeWsAb-15" edge="1">
          <mxGeometry relative="1" as="geometry" />
        </mxCell>
        <mxCell id="foTWOBQvS2BgbUqeWsAb-48" style="rounded=0;orthogonalLoop=1;jettySize=auto;html=1;exitX=1;exitY=1;exitDx=0;exitDy=0;entryX=0.217;entryY=0.102;entryDx=0;entryDy=0;entryPerimeter=0;dashed=1;endArrow=open;endFill=0;fontSize=14;strokeWidth=1;" parent="1" source="foTWOBQvS2BgbUqeWsAb-9" target="foTWOBQvS2BgbUqeWsAb-29" edge="1">
          <mxGeometry relative="1" as="geometry" />
        </mxCell>
        <mxCell id="foTWOBQvS2BgbUqeWsAb-49" style="rounded=0;orthogonalLoop=1;jettySize=auto;html=1;exitX=1;exitY=0.5;exitDx=0;exitDy=0;entryX=0.089;entryY=0.24;entryDx=0;entryDy=0;entryPerimeter=0;dashed=1;endArrow=open;endFill=0;fontSize=14;strokeWidth=1;" parent="1" source="foTWOBQvS2BgbUqeWsAb-9" target="foTWOBQvS2BgbUqeWsAb-30" edge="1">
          <mxGeometry relative="1" as="geometry" />
        </mxCell>
        <mxCell id="foTWOBQvS2BgbUqeWsAb-50" style="rounded=0;orthogonalLoop=1;jettySize=auto;html=1;exitX=1;exitY=0;exitDx=0;exitDy=0;entryX=0.275;entryY=0.947;entryDx=0;entryDy=0;entryPerimeter=0;dashed=1;endArrow=open;endFill=0;fontSize=14;strokeWidth=1;" parent="1" source="foTWOBQvS2BgbUqeWsAb-9" target="foTWOBQvS2BgbUqeWsAb-31" edge="1">
          <mxGeometry relative="1" as="geometry" />
        </mxCell>
        <mxCell id="foTWOBQvS2BgbUqeWsAb-51" style="rounded=0;orthogonalLoop=1;jettySize=auto;html=1;exitX=0.5;exitY=0.5;exitDx=0;exitDy=0;exitPerimeter=0;entryX=0.265;entryY=0.93;entryDx=0;entryDy=0;entryPerimeter=0;endArrow=none;endFill=0;fontSize=14;strokeWidth=1;" parent="1" source="foTWOBQvS2BgbUqeWsAb-1" target="foTWOBQvS2BgbUqeWsAb-8" edge="1">
          <mxGeometry relative="1" as="geometry" />
        </mxCell>
        <mxCell id="foTWOBQvS2BgbUqeWsAb-52" style="rounded=0;orthogonalLoop=1;jettySize=auto;html=1;exitX=0.5;exitY=0.5;exitDx=0;exitDy=0;exitPerimeter=0;entryX=0.068;entryY=0.75;entryDx=0;entryDy=0;entryPerimeter=0;endArrow=none;endFill=0;fontSize=14;strokeWidth=1;" parent="1" source="foTWOBQvS2BgbUqeWsAb-1" target="foTWOBQvS2BgbUqeWsAb-9" edge="1">
          <mxGeometry relative="1" as="geometry" />
        </mxCell>
        <mxCell id="foTWOBQvS2BgbUqeWsAb-53" style="rounded=0;orthogonalLoop=1;jettySize=auto;html=1;exitX=1;exitY=0.5;exitDx=0;exitDy=0;entryX=0.5;entryY=0.5;entryDx=0;entryDy=0;entryPerimeter=0;endArrow=none;endFill=0;fontSize=14;strokeWidth=1;" parent="1" source="foTWOBQvS2BgbUqeWsAb-8" target="foTWOBQvS2BgbUqeWsAb-5" edge="1">
          <mxGeometry relative="1" as="geometry" />
        </mxCell>
        <mxCell id="foTWOBQvS2BgbUqeWsAb-54" style="rounded=0;orthogonalLoop=1;jettySize=auto;html=1;exitX=0.5;exitY=0.5;exitDx=0;exitDy=0;exitPerimeter=0;entryX=0.979;entryY=0.298;entryDx=0;entryDy=0;entryPerimeter=0;endArrow=none;endFill=0;fontSize=14;strokeWidth=1;" parent="1" source="foTWOBQvS2BgbUqeWsAb-5" target="foTWOBQvS2BgbUqeWsAb-9" edge="1">
          <mxGeometry relative="1" as="geometry" />
        </mxCell>
        <mxCell id="foTWOBQvS2BgbUqeWsAb-55" style="rounded=0;orthogonalLoop=1;jettySize=auto;html=1;exitX=0.5;exitY=0.5;exitDx=0;exitDy=0;exitPerimeter=0;entryX=0.817;entryY=0.146;entryDx=0;entryDy=0;entryPerimeter=0;endArrow=none;endFill=0;fontSize=14;strokeWidth=1;" parent="1" source="foTWOBQvS2BgbUqeWsAb-5" target="foTWOBQvS2BgbUqeWsAb-10" edge="1">
          <mxGeometry relative="1" as="geometry" />
        </mxCell>
        <mxCell id="foTWOBQvS2BgbUqeWsAb-56" style="rounded=0;orthogonalLoop=1;jettySize=auto;html=1;exitX=0.5;exitY=0.5;exitDx=0;exitDy=0;exitPerimeter=0;entryX=0.812;entryY=0.136;entryDx=0;entryDy=0;entryPerimeter=0;endArrow=none;endFill=0;fontSize=14;strokeWidth=1;" parent="1" source="foTWOBQvS2BgbUqeWsAb-5" target="foTWOBQvS2BgbUqeWsAb-15" edge="1">
          <mxGeometry relative="1" as="geometry" />
        </mxCell>
        <mxCell id="foTWOBQvS2BgbUqeWsAb-57" style="rounded=0;orthogonalLoop=1;jettySize=auto;html=1;exitX=0.5;exitY=0.5;exitDx=0;exitDy=0;exitPerimeter=0;entryX=0.431;entryY=0.022;entryDx=0;entryDy=0;entryPerimeter=0;endArrow=none;endFill=0;fontSize=14;strokeWidth=1;" parent="1" source="foTWOBQvS2BgbUqeWsAb-5" target="foTWOBQvS2BgbUqeWsAb-14" edge="1">
          <mxGeometry relative="1" as="geometry" />
        </mxCell>
        <mxCell id="foTWOBQvS2BgbUqeWsAb-59" style="rounded=0;orthogonalLoop=1;jettySize=auto;html=1;exitX=0.5;exitY=0.5;exitDx=0;exitDy=0;exitPerimeter=0;entryX=0.046;entryY=0.317;entryDx=0;entryDy=0;entryPerimeter=0;endArrow=none;endFill=0;fontSize=14;strokeWidth=1;" parent="1" source="foTWOBQvS2BgbUqeWsAb-5" target="foTWOBQvS2BgbUqeWsAb-22" edge="1">
          <mxGeometry relative="1" as="geometry" />
        </mxCell>
        <mxCell id="foTWOBQvS2BgbUqeWsAb-60" value="&quot;include&quot;" style="text;html=1;align=center;verticalAlign=middle;resizable=0;points=[];autosize=1;strokeColor=none;fillColor=none;fontSize=14;strokeWidth=1;" parent="1" vertex="1">
          <mxGeometry x="475" y="570" width="80" height="30" as="geometry" />
        </mxCell>
        <mxCell id="foTWOBQvS2BgbUqeWsAb-62" value="&quot;include&quot;" style="text;html=1;align=center;verticalAlign=middle;resizable=0;points=[];autosize=1;strokeColor=none;fillColor=none;fontSize=14;strokeWidth=1;" parent="1" vertex="1">
          <mxGeometry x="515" y="530" width="80" height="30" as="geometry" />
        </mxCell>
        <mxCell id="foTWOBQvS2BgbUqeWsAb-63" value="&quot;include&quot;" style="text;html=1;align=center;verticalAlign=middle;resizable=0;points=[];autosize=1;strokeColor=none;fillColor=none;fontSize=14;strokeWidth=1;" parent="1" vertex="1">
          <mxGeometry x="525" y="470" width="80" height="30" as="geometry" />
        </mxCell>
        <mxCell id="foTWOBQvS2BgbUqeWsAb-64" value="&quot;include&quot;" style="text;html=1;align=center;verticalAlign=middle;resizable=0;points=[];autosize=1;strokeColor=none;fillColor=none;fontSize=14;strokeWidth=1;" parent="1" vertex="1">
          <mxGeometry x="635" y="290" width="80" height="30" as="geometry" />
        </mxCell>
        <mxCell id="foTWOBQvS2BgbUqeWsAb-65" value="&quot;include&quot;" style="text;html=1;align=center;verticalAlign=middle;resizable=0;points=[];autosize=1;strokeColor=none;fillColor=none;fontSize=14;strokeWidth=1;" parent="1" vertex="1">
          <mxGeometry x="575" y="315" width="80" height="30" as="geometry" />
        </mxCell>
        <mxCell id="foTWOBQvS2BgbUqeWsAb-66" value="&quot;include&quot;" style="text;html=1;align=center;verticalAlign=middle;resizable=0;points=[];autosize=1;strokeColor=none;fillColor=none;fontSize=14;strokeWidth=1;" parent="1" vertex="1">
          <mxGeometry x="545" y="280" width="80" height="30" as="geometry" />
        </mxCell>
        <mxCell id="foTWOBQvS2BgbUqeWsAb-67" value="&quot;include&quot;" style="text;html=1;align=center;verticalAlign=middle;resizable=0;points=[];autosize=1;strokeColor=none;fillColor=none;fontSize=14;strokeWidth=1;" parent="1" vertex="1">
          <mxGeometry x="535" y="240" width="80" height="30" as="geometry" />
        </mxCell>
        <mxCell id="foTWOBQvS2BgbUqeWsAb-68" value="&quot;include&quot;" style="text;html=1;align=center;verticalAlign=middle;resizable=0;points=[];autosize=1;strokeColor=none;fillColor=none;fontSize=14;strokeWidth=1;" parent="1" vertex="1">
          <mxGeometry x="565" y="200" width="80" height="30" as="geometry" />
        </mxCell>
        <mxCell id="foTWOBQvS2BgbUqeWsAb-69" value="&quot;include&quot;" style="text;html=1;align=center;verticalAlign=middle;resizable=0;points=[];autosize=1;strokeColor=none;fillColor=none;fontSize=14;strokeWidth=1;" parent="1" vertex="1">
          <mxGeometry x="205" y="190" width="80" height="30" as="geometry" />
        </mxCell>
        <mxCell id="foTWOBQvS2BgbUqeWsAb-70" value="&quot;include&quot;" style="text;html=1;align=center;verticalAlign=middle;resizable=0;points=[];autosize=1;strokeColor=none;fillColor=none;fontSize=14;strokeWidth=1;" parent="1" vertex="1">
          <mxGeometry x="220" y="240" width="80" height="30" as="geometry" />
        </mxCell>
        <mxCell id="foTWOBQvS2BgbUqeWsAb-71" value="&quot;include&quot;" style="text;html=1;align=center;verticalAlign=middle;resizable=0;points=[];autosize=1;strokeColor=none;fillColor=none;fontSize=14;strokeWidth=1;" parent="1" vertex="1">
          <mxGeometry x="185" y="270" width="80" height="30" as="geometry" />
        </mxCell>
        <mxCell id="foTWOBQvS2BgbUqeWsAb-72" value="&quot;include&quot;" style="text;html=1;align=center;verticalAlign=middle;resizable=0;points=[];autosize=1;strokeColor=none;fillColor=none;fontSize=14;strokeWidth=1;" parent="1" vertex="1">
          <mxGeometry x="145" y="285" width="80" height="30" as="geometry" />
        </mxCell>
      </root>
    </mxGraphModel>
  </diagram>
  <diagram id="_d_mUgGhx_Lo2ZaE2Otk" name="Страница — 2">
    <mxGraphModel dx="2074" dy="3495" grid="1" gridSize="10" guides="1" tooltips="1" connect="1" arrows="1" fold="1" page="1" pageScale="1" pageWidth="1654" pageHeight="2336" math="0" shadow="0">
      <root>
        <mxCell id="0" />
        <mxCell id="1" parent="0" />
        <mxCell id="s02Rq8srbxK2OwTEL8W5-5" value="&lt;div&gt;&quot;interface&quot;&lt;br&gt;&lt;/div&gt;План_поставок" style="swimlane;fontStyle=1;align=center;verticalAlign=top;childLayout=stackLayout;horizontal=1;startSize=40;horizontalStack=0;resizeParent=1;resizeParentMax=0;resizeLast=0;collapsible=1;marginBottom=0;whiteSpace=wrap;html=1;" parent="1" vertex="1">
          <mxGeometry x="10" y="-938" width="160" height="178" as="geometry" />
        </mxCell>
        <mxCell id="s02Rq8srbxK2OwTEL8W5-6" value="+ Код_плана: int&lt;div&gt;+ Номер: int&lt;/div&gt;&lt;div&gt;+ Дата: data&lt;/div&gt;&lt;div&gt;+ Код_поставщика: int&lt;/div&gt;&lt;div&gt;+ Код продукции: int&lt;br&gt;+ Плановое_кол-во: int&lt;/div&gt;" style="text;strokeColor=none;fillColor=none;align=left;verticalAlign=top;spacingLeft=4;spacingRight=4;overflow=hidden;rotatable=0;points=[[0,0.5],[1,0.5]];portConstraint=eastwest;whiteSpace=wrap;html=1;" parent="s02Rq8srbxK2OwTEL8W5-5" vertex="1">
          <mxGeometry y="40" width="160" height="104" as="geometry" />
        </mxCell>
        <mxCell id="s02Rq8srbxK2OwTEL8W5-7" value="" style="line;strokeWidth=1;fillColor=none;align=left;verticalAlign=middle;spacingTop=-1;spacingLeft=3;spacingRight=3;rotatable=0;labelPosition=right;points=[];portConstraint=eastwest;strokeColor=inherit;" parent="s02Rq8srbxK2OwTEL8W5-5" vertex="1">
          <mxGeometry y="144" width="160" height="8" as="geometry" />
        </mxCell>
        <mxCell id="s02Rq8srbxK2OwTEL8W5-8" value="+ Составдение ()&lt;br&gt;+ Передача_инфо()" style="text;strokeColor=none;fillColor=none;align=left;verticalAlign=top;spacingLeft=4;spacingRight=4;overflow=hidden;rotatable=0;points=[[0,0.5],[1,0.5]];portConstraint=eastwest;whiteSpace=wrap;html=1;" parent="s02Rq8srbxK2OwTEL8W5-5" vertex="1">
          <mxGeometry y="152" width="160" height="26" as="geometry" />
        </mxCell>
        <mxCell id="s02Rq8srbxK2OwTEL8W5-9" value="Поставщик" style="swimlane;fontStyle=1;align=center;verticalAlign=top;childLayout=stackLayout;horizontal=1;startSize=26;horizontalStack=0;resizeParent=1;resizeParentMax=0;resizeLast=0;collapsible=1;marginBottom=0;whiteSpace=wrap;html=1;" parent="1" vertex="1">
          <mxGeometry x="254" y="-908" width="160" height="78" as="geometry" />
        </mxCell>
        <mxCell id="s02Rq8srbxK2OwTEL8W5-10" value="+ Код_поставщика: int&lt;br&gt;+ Наименование: string" style="text;strokeColor=none;fillColor=none;align=left;verticalAlign=top;spacingLeft=4;spacingRight=4;overflow=hidden;rotatable=0;points=[[0,0.5],[1,0.5]];portConstraint=eastwest;whiteSpace=wrap;html=1;" parent="s02Rq8srbxK2OwTEL8W5-9" vertex="1">
          <mxGeometry y="26" width="160" height="44" as="geometry" />
        </mxCell>
        <mxCell id="s02Rq8srbxK2OwTEL8W5-11" value="" style="line;strokeWidth=1;fillColor=none;align=left;verticalAlign=middle;spacingTop=-1;spacingLeft=3;spacingRight=3;rotatable=0;labelPosition=right;points=[];portConstraint=eastwest;strokeColor=inherit;" parent="s02Rq8srbxK2OwTEL8W5-9" vertex="1">
          <mxGeometry y="70" width="160" height="8" as="geometry" />
        </mxCell>
        <mxCell id="s02Rq8srbxK2OwTEL8W5-13" value="Продукция" style="swimlane;fontStyle=1;align=center;verticalAlign=top;childLayout=stackLayout;horizontal=1;startSize=26;horizontalStack=0;resizeParent=1;resizeParentMax=0;resizeLast=0;collapsible=1;marginBottom=0;whiteSpace=wrap;html=1;" parent="1" vertex="1">
          <mxGeometry x="254" y="-808" width="160" height="92" as="geometry" />
        </mxCell>
        <mxCell id="s02Rq8srbxK2OwTEL8W5-14" value="+ Код_продукции: int&lt;div&gt;+ Наименование: string&lt;br&gt;&lt;/div&gt;" style="text;strokeColor=none;fillColor=none;align=left;verticalAlign=top;spacingLeft=4;spacingRight=4;overflow=hidden;rotatable=0;points=[[0,0.5],[1,0.5]];portConstraint=eastwest;whiteSpace=wrap;html=1;" parent="s02Rq8srbxK2OwTEL8W5-13" vertex="1">
          <mxGeometry y="26" width="160" height="34" as="geometry" />
        </mxCell>
        <mxCell id="s02Rq8srbxK2OwTEL8W5-15" value="" style="line;strokeWidth=1;fillColor=none;align=left;verticalAlign=middle;spacingTop=-1;spacingLeft=3;spacingRight=3;rotatable=0;labelPosition=right;points=[];portConstraint=eastwest;strokeColor=inherit;" parent="s02Rq8srbxK2OwTEL8W5-13" vertex="1">
          <mxGeometry y="60" width="160" height="8" as="geometry" />
        </mxCell>
        <mxCell id="AIqxZQt7mxGWTlVcOh5t-1" value="&lt;div&gt;+ прием продукции ()&lt;/div&gt;" style="text;strokeColor=none;fillColor=none;align=left;verticalAlign=top;spacingLeft=4;spacingRight=4;overflow=hidden;rotatable=0;points=[[0,0.5],[1,0.5]];portConstraint=eastwest;whiteSpace=wrap;html=1;" parent="s02Rq8srbxK2OwTEL8W5-13" vertex="1">
          <mxGeometry y="68" width="160" height="24" as="geometry" />
        </mxCell>
        <mxCell id="eKbR7FDYNF4lGTzNF_Ht-1" value="Акт_принятия_товара" style="swimlane;fontStyle=1;align=center;verticalAlign=top;childLayout=stackLayout;horizontal=1;startSize=26;horizontalStack=0;resizeParent=1;resizeParentMax=0;resizeLast=0;collapsible=1;marginBottom=0;whiteSpace=wrap;html=1;" parent="1" vertex="1">
          <mxGeometry x="630" y="-958" width="160" height="148" as="geometry" />
        </mxCell>
        <mxCell id="eKbR7FDYNF4lGTzNF_Ht-2" value="+ Код_акта: int&lt;div&gt;+ Дата поступления&lt;span style=&quot;background-color: initial;&quot;&gt;: data&lt;/span&gt;&lt;/div&gt;&lt;div&gt;&lt;span style=&quot;background-color: initial;&quot;&gt;+ Дата_принятия: data&lt;/span&gt;&lt;/div&gt;&lt;div&gt;+ Код_товара&lt;span style=&quot;background-color: initial;&quot;&gt;: int&lt;/span&gt;&lt;/div&gt;&lt;div&gt;+ Код_поставщика&lt;span style=&quot;background-color: initial;&quot;&gt;: int&lt;br&gt;+ Инфо_от_постав:string&lt;/span&gt;&lt;/div&gt;&lt;div&gt;+ Кол-во_товара&lt;span style=&quot;background-color: initial;&quot;&gt;: int&lt;/span&gt;&lt;/div&gt;" style="text;strokeColor=none;fillColor=none;align=left;verticalAlign=top;spacingLeft=4;spacingRight=4;overflow=hidden;rotatable=0;points=[[0,0.5],[1,0.5]];portConstraint=eastwest;whiteSpace=wrap;html=1;" parent="eKbR7FDYNF4lGTzNF_Ht-1" vertex="1">
          <mxGeometry y="26" width="160" height="114" as="geometry" />
        </mxCell>
        <mxCell id="eKbR7FDYNF4lGTzNF_Ht-3" value="" style="line;strokeWidth=1;fillColor=none;align=left;verticalAlign=middle;spacingTop=-1;spacingLeft=3;spacingRight=3;rotatable=0;labelPosition=right;points=[];portConstraint=eastwest;strokeColor=inherit;" parent="eKbR7FDYNF4lGTzNF_Ht-1" vertex="1">
          <mxGeometry y="140" width="160" height="8" as="geometry" />
        </mxCell>
        <mxCell id="eKbR7FDYNF4lGTzNF_Ht-5" value="Акт_расхождения" style="swimlane;fontStyle=1;align=center;verticalAlign=top;childLayout=stackLayout;horizontal=1;startSize=26;horizontalStack=0;resizeParent=1;resizeParentMax=0;resizeLast=0;collapsible=1;marginBottom=0;whiteSpace=wrap;html=1;" parent="1" vertex="1">
          <mxGeometry x="630" y="-798" width="160" height="128" as="geometry" />
        </mxCell>
        <mxCell id="eKbR7FDYNF4lGTzNF_Ht-6" value="+ Код_акта: int&lt;div&gt;+ Дата поступления&lt;span style=&quot;background-color: initial;&quot;&gt;: data&lt;/span&gt;&lt;/div&gt;&lt;div&gt;+ Код_товара&lt;span style=&quot;background-color: initial;&quot;&gt;: int&lt;/span&gt;&lt;/div&gt;&lt;div&gt;+ Код_поставщика&lt;span style=&quot;background-color: initial;&quot;&gt;: int&lt;/span&gt;&lt;/div&gt;&lt;div&gt;+ Кол-во_расхождения&lt;span style=&quot;background-color: initial;&quot;&gt;: int&lt;/span&gt;&lt;/div&gt;" style="text;strokeColor=none;fillColor=none;align=left;verticalAlign=top;spacingLeft=4;spacingRight=4;overflow=hidden;rotatable=0;points=[[0,0.5],[1,0.5]];portConstraint=eastwest;whiteSpace=wrap;html=1;" parent="eKbR7FDYNF4lGTzNF_Ht-5" vertex="1">
          <mxGeometry y="26" width="160" height="94" as="geometry" />
        </mxCell>
        <mxCell id="eKbR7FDYNF4lGTzNF_Ht-7" value="" style="line;strokeWidth=1;fillColor=none;align=left;verticalAlign=middle;spacingTop=-1;spacingLeft=3;spacingRight=3;rotatable=0;labelPosition=right;points=[];portConstraint=eastwest;strokeColor=inherit;" parent="eKbR7FDYNF4lGTzNF_Ht-5" vertex="1">
          <mxGeometry y="120" width="160" height="8" as="geometry" />
        </mxCell>
        <mxCell id="eKbR7FDYNF4lGTzNF_Ht-9" value="Акт_бракованной&lt;br&gt;продукции" style="swimlane;fontStyle=1;align=center;verticalAlign=top;childLayout=stackLayout;horizontal=1;startSize=36;horizontalStack=0;resizeParent=1;resizeParentMax=0;resizeLast=0;collapsible=1;marginBottom=0;whiteSpace=wrap;html=1;" parent="1" vertex="1">
          <mxGeometry x="630" y="-660" width="160" height="128" as="geometry" />
        </mxCell>
        <mxCell id="eKbR7FDYNF4lGTzNF_Ht-10" value="+ Код_акта: int&lt;div&gt;+ Дата поступления&lt;span style=&quot;background-color: initial;&quot;&gt;: data&lt;/span&gt;&lt;/div&gt;&lt;div&gt;+ Код_товара&lt;span style=&quot;background-color: initial;&quot;&gt;: int&lt;/span&gt;&lt;/div&gt;&lt;div&gt;+ Код_поставщика&lt;span style=&quot;background-color: initial;&quot;&gt;: int&lt;/span&gt;&lt;/div&gt;&lt;div&gt;+ Кол-во_брака&lt;span style=&quot;background-color: initial;&quot;&gt;: int&lt;/span&gt;&lt;/div&gt;" style="text;strokeColor=none;fillColor=none;align=left;verticalAlign=top;spacingLeft=4;spacingRight=4;overflow=hidden;rotatable=0;points=[[0,0.5],[1,0.5]];portConstraint=eastwest;whiteSpace=wrap;html=1;" parent="eKbR7FDYNF4lGTzNF_Ht-9" vertex="1">
          <mxGeometry y="36" width="160" height="84" as="geometry" />
        </mxCell>
        <mxCell id="eKbR7FDYNF4lGTzNF_Ht-11" value="" style="line;strokeWidth=1;fillColor=none;align=left;verticalAlign=middle;spacingTop=-1;spacingLeft=3;spacingRight=3;rotatable=0;labelPosition=right;points=[];portConstraint=eastwest;strokeColor=inherit;" parent="eKbR7FDYNF4lGTzNF_Ht-9" vertex="1">
          <mxGeometry y="120" width="160" height="8" as="geometry" />
        </mxCell>
        <mxCell id="eKbR7FDYNF4lGTzNF_Ht-13" value="Мониторинг поступления&lt;br&gt;&amp;nbsp;продукции" style="swimlane;fontStyle=1;align=center;verticalAlign=top;childLayout=stackLayout;horizontal=1;startSize=40;horizontalStack=0;resizeParent=1;resizeParentMax=0;resizeLast=0;collapsible=1;marginBottom=0;whiteSpace=wrap;html=1;" parent="1" vertex="1">
          <mxGeometry x="630" y="-518" width="160" height="188" as="geometry" />
        </mxCell>
        <mxCell id="eKbR7FDYNF4lGTzNF_Ht-14" value="+ Код_акта: int&lt;div&gt;+ Номер&lt;span style=&quot;background-color: initial;&quot;&gt;: int&lt;/span&gt;&lt;/div&gt;&lt;div&gt;+ Дата: data&lt;/div&gt;&lt;div&gt;+ Код_поставщика&lt;span style=&quot;background-color: initial;&quot;&gt;: int&lt;/span&gt;&lt;/div&gt;&lt;div&gt;+ Код_поставщика&lt;span style=&quot;background-color: initial;&quot;&gt;: int&lt;/span&gt;&lt;/div&gt;&lt;div&gt;+ Поступившее_кол-во&lt;span style=&quot;background-color: initial;&quot;&gt;: int&lt;/span&gt;&lt;/div&gt;&lt;div&gt;+ Количество_брака&lt;span style=&quot;background-color: initial;&quot;&gt;: int&lt;/span&gt;&lt;/div&gt;&lt;div&gt;+ Плановое_кол-во&lt;span style=&quot;background-color: initial;&quot;&gt;: int&lt;/span&gt;&lt;/div&gt;&lt;div&gt;+ Принятие: boolean&lt;/div&gt;" style="text;strokeColor=none;fillColor=none;align=left;verticalAlign=top;spacingLeft=4;spacingRight=4;overflow=hidden;rotatable=0;points=[[0,0.5],[1,0.5]];portConstraint=eastwest;whiteSpace=wrap;html=1;" parent="eKbR7FDYNF4lGTzNF_Ht-13" vertex="1">
          <mxGeometry y="40" width="160" height="140" as="geometry" />
        </mxCell>
        <mxCell id="eKbR7FDYNF4lGTzNF_Ht-15" value="" style="line;strokeWidth=1;fillColor=none;align=left;verticalAlign=middle;spacingTop=-1;spacingLeft=3;spacingRight=3;rotatable=0;labelPosition=right;points=[];portConstraint=eastwest;strokeColor=inherit;" parent="eKbR7FDYNF4lGTzNF_Ht-13" vertex="1">
          <mxGeometry y="180" width="160" height="8" as="geometry" />
        </mxCell>
        <mxCell id="eKbR7FDYNF4lGTzNF_Ht-17" value="&quot;interface&quot;&lt;br&gt;Регистрация поступающей&lt;br&gt;продукции" style="swimlane;fontStyle=1;align=center;verticalAlign=top;childLayout=stackLayout;horizontal=1;startSize=66;horizontalStack=0;resizeParent=1;resizeParentMax=0;resizeLast=0;collapsible=1;marginBottom=0;whiteSpace=wrap;html=1;" parent="1" vertex="1">
          <mxGeometry x="370" y="-700" width="160" height="220" as="geometry" />
        </mxCell>
        <mxCell id="eKbR7FDYNF4lGTzNF_Ht-18" value="+ Код_регистрации: int&lt;div&gt;+ Номер&lt;span style=&quot;background-color: initial;&quot;&gt;: int&lt;/span&gt;&lt;/div&gt;&lt;div&gt;+ Код_поставщика: int&lt;br&gt;+ Код_продукции: int&lt;br&gt;+ Поступившее_кол-во: int&lt;br&gt;+ Кол-во_брака&lt;span style=&quot;background-color: initial;&quot;&gt;: int&lt;/span&gt;&lt;/div&gt;&lt;div&gt;+ Плановое_кол-во: int&lt;/div&gt;" style="text;strokeColor=none;fillColor=none;align=left;verticalAlign=top;spacingLeft=4;spacingRight=4;overflow=hidden;rotatable=0;points=[[0,0.5],[1,0.5]];portConstraint=eastwest;whiteSpace=wrap;html=1;" parent="eKbR7FDYNF4lGTzNF_Ht-17" vertex="1">
          <mxGeometry y="66" width="160" height="110" as="geometry" />
        </mxCell>
        <mxCell id="eKbR7FDYNF4lGTzNF_Ht-19" value="" style="line;strokeWidth=1;fillColor=none;align=left;verticalAlign=middle;spacingTop=-1;spacingLeft=3;spacingRight=3;rotatable=0;labelPosition=right;points=[];portConstraint=eastwest;strokeColor=inherit;" parent="eKbR7FDYNF4lGTzNF_Ht-17" vertex="1">
          <mxGeometry y="176" width="160" height="8" as="geometry" />
        </mxCell>
        <mxCell id="eKbR7FDYNF4lGTzNF_Ht-20" value="+ Внесение данных()&lt;br&gt;+ Передача_инфо()" style="text;strokeColor=none;fillColor=none;align=left;verticalAlign=top;spacingLeft=4;spacingRight=4;overflow=hidden;rotatable=0;points=[[0,0.5],[1,0.5]];portConstraint=eastwest;whiteSpace=wrap;html=1;" parent="eKbR7FDYNF4lGTzNF_Ht-17" vertex="1">
          <mxGeometry y="184" width="160" height="36" as="geometry" />
        </mxCell>
        <mxCell id="eKbR7FDYNF4lGTzNF_Ht-21" value="Брак" style="swimlane;fontStyle=1;align=center;verticalAlign=top;childLayout=stackLayout;horizontal=1;startSize=30;horizontalStack=0;resizeParent=1;resizeParentMax=0;resizeLast=0;collapsible=1;marginBottom=0;whiteSpace=wrap;html=1;" parent="1" vertex="1">
          <mxGeometry x="160" y="-622" width="120" height="64" as="geometry" />
        </mxCell>
        <mxCell id="eKbR7FDYNF4lGTzNF_Ht-22" value="+ Количество: int" style="text;strokeColor=none;fillColor=none;align=left;verticalAlign=top;spacingLeft=4;spacingRight=4;overflow=hidden;rotatable=0;points=[[0,0.5],[1,0.5]];portConstraint=eastwest;whiteSpace=wrap;html=1;" parent="eKbR7FDYNF4lGTzNF_Ht-21" vertex="1">
          <mxGeometry y="30" width="120" height="26" as="geometry" />
        </mxCell>
        <mxCell id="eKbR7FDYNF4lGTzNF_Ht-23" value="" style="line;strokeWidth=1;fillColor=none;align=left;verticalAlign=middle;spacingTop=-1;spacingLeft=3;spacingRight=3;rotatable=0;labelPosition=right;points=[];portConstraint=eastwest;strokeColor=inherit;" parent="eKbR7FDYNF4lGTzNF_Ht-21" vertex="1">
          <mxGeometry y="56" width="120" height="8" as="geometry" />
        </mxCell>
        <mxCell id="eKbR7FDYNF4lGTzNF_Ht-25" style="edgeStyle=orthogonalEdgeStyle;rounded=0;orthogonalLoop=1;jettySize=auto;html=1;exitX=0;exitY=0.5;exitDx=0;exitDy=0;entryX=1;entryY=0.5;entryDx=0;entryDy=0;endArrow=diamondThin;endFill=1;endSize=12;" parent="1" source="s02Rq8srbxK2OwTEL8W5-10" target="s02Rq8srbxK2OwTEL8W5-6" edge="1">
          <mxGeometry relative="1" as="geometry" />
        </mxCell>
        <mxCell id="eKbR7FDYNF4lGTzNF_Ht-26" style="edgeStyle=orthogonalEdgeStyle;rounded=0;orthogonalLoop=1;jettySize=auto;html=1;exitX=0;exitY=0.5;exitDx=0;exitDy=0;entryX=1.024;entryY=0.862;entryDx=0;entryDy=0;entryPerimeter=0;endArrow=diamondThin;endFill=1;endSize=12;" parent="1" source="s02Rq8srbxK2OwTEL8W5-14" target="s02Rq8srbxK2OwTEL8W5-6" edge="1">
          <mxGeometry relative="1" as="geometry" />
        </mxCell>
        <mxCell id="eKbR7FDYNF4lGTzNF_Ht-27" style="edgeStyle=orthogonalEdgeStyle;rounded=0;orthogonalLoop=1;jettySize=auto;html=1;exitX=0.5;exitY=1;exitDx=0;exitDy=0;entryX=0.003;entryY=0.109;entryDx=0;entryDy=0;entryPerimeter=0;endArrow=diamondThin;endFill=1;endSize=12;" parent="1" source="s02Rq8srbxK2OwTEL8W5-13" target="eKbR7FDYNF4lGTzNF_Ht-18" edge="1">
          <mxGeometry relative="1" as="geometry" />
        </mxCell>
        <mxCell id="eKbR7FDYNF4lGTzNF_Ht-29" style="edgeStyle=orthogonalEdgeStyle;rounded=0;orthogonalLoop=1;jettySize=auto;html=1;exitX=0.394;exitY=1;exitDx=0;exitDy=0;entryX=0;entryY=0.5;entryDx=0;entryDy=0;exitPerimeter=0;endArrow=open;endFill=0;" parent="1" source="s02Rq8srbxK2OwTEL8W5-8" target="eKbR7FDYNF4lGTzNF_Ht-20" edge="1">
          <mxGeometry relative="1" as="geometry" />
        </mxCell>
        <mxCell id="eKbR7FDYNF4lGTzNF_Ht-30" style="edgeStyle=orthogonalEdgeStyle;rounded=0;orthogonalLoop=1;jettySize=auto;html=1;exitX=1;exitY=0.5;exitDx=0;exitDy=0;entryX=0;entryY=0.544;entryDx=0;entryDy=0;entryPerimeter=0;endArrow=diamondThin;endFill=1;endSize=12;" parent="1" source="eKbR7FDYNF4lGTzNF_Ht-18" target="eKbR7FDYNF4lGTzNF_Ht-10" edge="1">
          <mxGeometry relative="1" as="geometry">
            <Array as="points">
              <mxPoint x="600" y="-578" />
            </Array>
          </mxGeometry>
        </mxCell>
        <mxCell id="eKbR7FDYNF4lGTzNF_Ht-32" style="edgeStyle=orthogonalEdgeStyle;rounded=0;orthogonalLoop=1;jettySize=auto;html=1;exitX=0.5;exitY=0;exitDx=0;exitDy=0;entryX=-0.019;entryY=0.043;entryDx=0;entryDy=0;entryPerimeter=0;dashed=1;endArrow=open;endFill=0;" parent="1" source="s02Rq8srbxK2OwTEL8W5-9" target="eKbR7FDYNF4lGTzNF_Ht-2" edge="1">
          <mxGeometry relative="1" as="geometry" />
        </mxCell>
        <mxCell id="eKbR7FDYNF4lGTzNF_Ht-34" style="edgeStyle=orthogonalEdgeStyle;rounded=0;orthogonalLoop=1;jettySize=auto;html=1;exitX=1;exitY=0.5;exitDx=0;exitDy=0;entryX=0.75;entryY=0;entryDx=0;entryDy=0;endArrow=diamondThin;endFill=1;endSize=12;" parent="1" source="s02Rq8srbxK2OwTEL8W5-10" target="eKbR7FDYNF4lGTzNF_Ht-17" edge="1">
          <mxGeometry relative="1" as="geometry">
            <Array as="points">
              <mxPoint x="414" y="-838" />
              <mxPoint x="490" y="-838" />
            </Array>
          </mxGeometry>
        </mxCell>
        <mxCell id="eKbR7FDYNF4lGTzNF_Ht-35" style="edgeStyle=orthogonalEdgeStyle;rounded=0;orthogonalLoop=1;jettySize=auto;html=1;exitX=1;exitY=0.5;exitDx=0;exitDy=0;entryX=0;entryY=0.25;entryDx=0;entryDy=0;endArrow=diamondThin;endFill=0;endSize=12;" parent="1" source="eKbR7FDYNF4lGTzNF_Ht-20" target="eKbR7FDYNF4lGTzNF_Ht-13" edge="1">
          <mxGeometry relative="1" as="geometry" />
        </mxCell>
        <mxCell id="ozw0trIUYs-uJhbhXkoR-3" style="edgeStyle=orthogonalEdgeStyle;rounded=0;orthogonalLoop=1;jettySize=auto;html=1;exitX=0.5;exitY=1;exitDx=0;exitDy=0;entryX=0.5;entryY=0;entryDx=0;entryDy=0;dashed=1;endArrow=open;endFill=0;" parent="1" source="eKbR7FDYNF4lGTzNF_Ht-36" target="eKbR7FDYNF4lGTzNF_Ht-17" edge="1">
          <mxGeometry relative="1" as="geometry" />
        </mxCell>
        <mxCell id="eKbR7FDYNF4lGTzNF_Ht-36" value="АИС" style="swimlane;fontStyle=1;align=center;verticalAlign=top;childLayout=stackLayout;horizontal=1;startSize=26;horizontalStack=0;resizeParent=1;resizeParentMax=0;resizeLast=0;collapsible=1;marginBottom=0;whiteSpace=wrap;html=1;" parent="1" vertex="1">
          <mxGeometry x="345" y="-1158" width="210" height="148" as="geometry" />
        </mxCell>
        <mxCell id="eKbR7FDYNF4lGTzNF_Ht-37" value="+ Хранение информации о плане поставок: string&lt;div&gt;+ Хранение информации о поставщиках: string&lt;/div&gt;&lt;div&gt;+ Хранение актов в системе: file&lt;/div&gt;&lt;div&gt;+ Хранение информации из актов: string&lt;/div&gt;" style="text;strokeColor=none;fillColor=none;align=left;verticalAlign=top;spacingLeft=4;spacingRight=4;overflow=hidden;rotatable=0;points=[[0,0.5],[1,0.5]];portConstraint=eastwest;whiteSpace=wrap;html=1;" parent="eKbR7FDYNF4lGTzNF_Ht-36" vertex="1">
          <mxGeometry y="26" width="210" height="114" as="geometry" />
        </mxCell>
        <mxCell id="eKbR7FDYNF4lGTzNF_Ht-38" value="" style="line;strokeWidth=1;fillColor=none;align=left;verticalAlign=middle;spacingTop=-1;spacingLeft=3;spacingRight=3;rotatable=0;labelPosition=right;points=[];portConstraint=eastwest;strokeColor=inherit;" parent="eKbR7FDYNF4lGTzNF_Ht-36" vertex="1">
          <mxGeometry y="140" width="210" height="8" as="geometry" />
        </mxCell>
        <mxCell id="ozw0trIUYs-uJhbhXkoR-1" style="edgeStyle=orthogonalEdgeStyle;rounded=0;orthogonalLoop=1;jettySize=auto;html=1;exitX=0.5;exitY=1;exitDx=0;exitDy=0;entryX=0.5;entryY=0;entryDx=0;entryDy=0;endArrow=open;endFill=0;dashed=1;" parent="1" source="eKbR7FDYNF4lGTzNF_Ht-39" target="s02Rq8srbxK2OwTEL8W5-5" edge="1">
          <mxGeometry relative="1" as="geometry" />
        </mxCell>
        <mxCell id="eKbR7FDYNF4lGTzNF_Ht-39" value="&lt;div&gt;Менеджер&amp;nbsp;&lt;/div&gt;&lt;div&gt;Инвентаризации&lt;/div&gt;" style="swimlane;fontStyle=1;align=center;verticalAlign=top;childLayout=stackLayout;horizontal=1;startSize=34;horizontalStack=0;resizeParent=1;resizeParentMax=0;resizeLast=0;collapsible=1;marginBottom=0;whiteSpace=wrap;html=1;" parent="1" vertex="1">
          <mxGeometry x="10" y="-1108" width="160" height="86" as="geometry" />
        </mxCell>
        <mxCell id="eKbR7FDYNF4lGTzNF_Ht-40" value="+ Код_поставщика: int&lt;br&gt;+ Наименование: string" style="text;strokeColor=none;fillColor=none;align=left;verticalAlign=top;spacingLeft=4;spacingRight=4;overflow=hidden;rotatable=0;points=[[0,0.5],[1,0.5]];portConstraint=eastwest;whiteSpace=wrap;html=1;" parent="eKbR7FDYNF4lGTzNF_Ht-39" vertex="1">
          <mxGeometry y="34" width="160" height="44" as="geometry" />
        </mxCell>
        <mxCell id="eKbR7FDYNF4lGTzNF_Ht-41" value="" style="line;strokeWidth=1;fillColor=none;align=left;verticalAlign=middle;spacingTop=-1;spacingLeft=3;spacingRight=3;rotatable=0;labelPosition=right;points=[];portConstraint=eastwest;strokeColor=inherit;" parent="eKbR7FDYNF4lGTzNF_Ht-39" vertex="1">
          <mxGeometry y="78" width="160" height="8" as="geometry" />
        </mxCell>
        <mxCell id="sJFhJI8UD2hTZ6ZGVBYn-5" value="&lt;div&gt;Работник&lt;/div&gt;&lt;div&gt;склада&lt;/div&gt;" style="swimlane;fontStyle=1;align=center;verticalAlign=top;childLayout=stackLayout;horizontal=1;startSize=40;horizontalStack=0;resizeParent=1;resizeParentMax=0;resizeLast=0;collapsible=1;marginBottom=0;whiteSpace=wrap;html=1;" parent="1" vertex="1">
          <mxGeometry x="218" y="-422" width="160" height="92" as="geometry" />
        </mxCell>
        <mxCell id="sJFhJI8UD2hTZ6ZGVBYn-6" value="+ Код_поставщика: int&lt;br&gt;+ Наименование: string" style="text;strokeColor=none;fillColor=none;align=left;verticalAlign=top;spacingLeft=4;spacingRight=4;overflow=hidden;rotatable=0;points=[[0,0.5],[1,0.5]];portConstraint=eastwest;whiteSpace=wrap;html=1;" parent="sJFhJI8UD2hTZ6ZGVBYn-5" vertex="1">
          <mxGeometry y="40" width="160" height="44" as="geometry" />
        </mxCell>
        <mxCell id="sJFhJI8UD2hTZ6ZGVBYn-7" value="" style="line;strokeWidth=1;fillColor=none;align=left;verticalAlign=middle;spacingTop=-1;spacingLeft=3;spacingRight=3;rotatable=0;labelPosition=right;points=[];portConstraint=eastwest;strokeColor=inherit;" parent="sJFhJI8UD2hTZ6ZGVBYn-5" vertex="1">
          <mxGeometry y="84" width="160" height="8" as="geometry" />
        </mxCell>
        <mxCell id="Y-TUgUp8kfpC7E3uTuv2-4" style="edgeStyle=orthogonalEdgeStyle;rounded=0;orthogonalLoop=1;jettySize=auto;html=1;exitX=0;exitY=0.162;exitDx=0;exitDy=0;entryX=1;entryY=0.5;entryDx=0;entryDy=0;exitPerimeter=0;endArrow=open;endFill=0;" parent="1" source="gbT2mSPt83J29YWyRt1n-3" target="eKbR7FDYNF4lGTzNF_Ht-10" edge="1">
          <mxGeometry relative="1" as="geometry" />
        </mxCell>
        <mxCell id="gbT2mSPt83J29YWyRt1n-5" style="edgeStyle=orthogonalEdgeStyle;rounded=0;orthogonalLoop=1;jettySize=auto;html=1;exitX=0;exitY=0.25;exitDx=0;exitDy=0;entryX=1;entryY=0.5;entryDx=0;entryDy=0;endArrow=open;endFill=0;" parent="1" source="sJFhJI8UD2hTZ6ZGVBYn-8" target="eKbR7FDYNF4lGTzNF_Ht-2" edge="1">
          <mxGeometry relative="1" as="geometry">
            <Array as="points">
              <mxPoint x="850" y="-674" />
              <mxPoint x="850" y="-875" />
            </Array>
          </mxGeometry>
        </mxCell>
        <mxCell id="sJFhJI8UD2hTZ6ZGVBYn-8" value="&lt;div&gt;Начальник&lt;/div&gt;&lt;div&gt;склада&lt;/div&gt;" style="swimlane;fontStyle=1;align=center;verticalAlign=top;childLayout=stackLayout;horizontal=1;startSize=40;horizontalStack=0;resizeParent=1;resizeParentMax=0;resizeLast=0;collapsible=1;marginBottom=0;whiteSpace=wrap;html=1;" parent="1" vertex="1">
          <mxGeometry x="870" y="-714" width="160" height="160" as="geometry" />
        </mxCell>
        <mxCell id="sJFhJI8UD2hTZ6ZGVBYn-9" value="+ Код_поставщика: int&lt;br&gt;+ Наименование: string" style="text;strokeColor=none;fillColor=none;align=left;verticalAlign=top;spacingLeft=4;spacingRight=4;overflow=hidden;rotatable=0;points=[[0,0.5],[1,0.5]];portConstraint=eastwest;whiteSpace=wrap;html=1;" parent="sJFhJI8UD2hTZ6ZGVBYn-8" vertex="1">
          <mxGeometry y="40" width="160" height="44" as="geometry" />
        </mxCell>
        <mxCell id="sJFhJI8UD2hTZ6ZGVBYn-10" value="" style="line;strokeWidth=1;fillColor=none;align=left;verticalAlign=middle;spacingTop=-1;spacingLeft=3;spacingRight=3;rotatable=0;labelPosition=right;points=[];portConstraint=eastwest;strokeColor=inherit;" parent="sJFhJI8UD2hTZ6ZGVBYn-8" vertex="1">
          <mxGeometry y="84" width="160" height="8" as="geometry" />
        </mxCell>
        <mxCell id="gbT2mSPt83J29YWyRt1n-3" value="+&amp;nbsp;&lt;span style=&quot;text-align: center;&quot;&gt;Мониторинг поступления продукции()&lt;/span&gt;&lt;br&gt;+&amp;nbsp;&lt;span style=&quot;text-align: center;&quot;&gt;Формирование&amp;nbsp;&lt;/span&gt;&lt;br style=&quot;text-align: center;&quot;&gt;&lt;span style=&quot;text-align: center;&quot;&gt;документов()&lt;/span&gt;" style="text;strokeColor=none;fillColor=none;align=left;verticalAlign=top;spacingLeft=4;spacingRight=4;overflow=hidden;rotatable=0;points=[[0,0.5],[1,0.5]];portConstraint=eastwest;whiteSpace=wrap;html=1;" parent="sJFhJI8UD2hTZ6ZGVBYn-8" vertex="1">
          <mxGeometry y="92" width="160" height="68" as="geometry" />
        </mxCell>
        <mxCell id="ozw0trIUYs-uJhbhXkoR-2" style="edgeStyle=orthogonalEdgeStyle;rounded=0;orthogonalLoop=1;jettySize=auto;html=1;exitX=0;exitY=0.5;exitDx=0;exitDy=0;entryX=1.025;entryY=0.163;entryDx=0;entryDy=0;entryPerimeter=0;dashed=1;endArrow=open;endFill=0;" parent="1" source="eKbR7FDYNF4lGTzNF_Ht-37" target="s02Rq8srbxK2OwTEL8W5-6" edge="1">
          <mxGeometry relative="1" as="geometry">
            <Array as="points">
              <mxPoint x="210" y="-1075" />
              <mxPoint x="210" y="-895" />
            </Array>
          </mxGeometry>
        </mxCell>
        <mxCell id="AIqxZQt7mxGWTlVcOh5t-2" style="edgeStyle=orthogonalEdgeStyle;rounded=0;orthogonalLoop=1;jettySize=auto;html=1;exitX=0.5;exitY=0;exitDx=0;exitDy=0;entryX=0.275;entryY=1;entryDx=0;entryDy=0;entryPerimeter=0;endArrow=open;endFill=0;" parent="1" source="sJFhJI8UD2hTZ6ZGVBYn-5" target="AIqxZQt7mxGWTlVcOh5t-1" edge="1">
          <mxGeometry relative="1" as="geometry" />
        </mxCell>
        <mxCell id="Y-TUgUp8kfpC7E3uTuv2-1" style="edgeStyle=orthogonalEdgeStyle;rounded=0;orthogonalLoop=1;jettySize=auto;html=1;exitX=0.25;exitY=0;exitDx=0;exitDy=0;entryX=0.817;entryY=1.125;entryDx=0;entryDy=0;entryPerimeter=0;endArrow=open;endFill=0;" parent="1" source="sJFhJI8UD2hTZ6ZGVBYn-5" target="eKbR7FDYNF4lGTzNF_Ht-23" edge="1">
          <mxGeometry relative="1" as="geometry" />
        </mxCell>
        <mxCell id="Y-TUgUp8kfpC7E3uTuv2-2" style="edgeStyle=orthogonalEdgeStyle;rounded=0;orthogonalLoop=1;jettySize=auto;html=1;exitX=0.75;exitY=0;exitDx=0;exitDy=0;entryX=-0.012;entryY=0.759;entryDx=0;entryDy=0;entryPerimeter=0;dashed=1;endArrow=open;endFill=0;" parent="1" source="sJFhJI8UD2hTZ6ZGVBYn-5" target="eKbR7FDYNF4lGTzNF_Ht-18" edge="1">
          <mxGeometry relative="1" as="geometry" />
        </mxCell>
        <mxCell id="Y-TUgUp8kfpC7E3uTuv2-3" style="edgeStyle=orthogonalEdgeStyle;rounded=0;orthogonalLoop=1;jettySize=auto;html=1;exitX=0;exitY=0.5;exitDx=0;exitDy=0;entryX=1;entryY=0.5;entryDx=0;entryDy=0;endArrow=open;endFill=0;" parent="1" source="gbT2mSPt83J29YWyRt1n-3" target="eKbR7FDYNF4lGTzNF_Ht-14" edge="1">
          <mxGeometry relative="1" as="geometry">
            <Array as="points">
              <mxPoint x="850" y="-588" />
              <mxPoint x="850" y="-408" />
            </Array>
          </mxGeometry>
        </mxCell>
        <mxCell id="gbT2mSPt83J29YWyRt1n-4" style="edgeStyle=orthogonalEdgeStyle;rounded=0;orthogonalLoop=1;jettySize=auto;html=1;exitX=0;exitY=0.5;exitDx=0;exitDy=0;entryX=1;entryY=0.5;entryDx=0;entryDy=0;endArrow=open;endFill=0;" parent="1" source="sJFhJI8UD2hTZ6ZGVBYn-9" target="eKbR7FDYNF4lGTzNF_Ht-6" edge="1">
          <mxGeometry relative="1" as="geometry" />
        </mxCell>
        <mxCell id="gbT2mSPt83J29YWyRt1n-8" style="edgeStyle=orthogonalEdgeStyle;rounded=0;orthogonalLoop=1;jettySize=auto;html=1;exitX=1;exitY=0.5;exitDx=0;exitDy=0;entryX=1.01;entryY=0.781;entryDx=0;entryDy=0;entryPerimeter=0;endArrow=none;endFill=0;" parent="1" source="sJFhJI8UD2hTZ6ZGVBYn-9" target="eKbR7FDYNF4lGTzNF_Ht-37" edge="1">
          <mxGeometry relative="1" as="geometry" />
        </mxCell>
        <mxCell id="gbT2mSPt83J29YWyRt1n-9" style="edgeStyle=orthogonalEdgeStyle;rounded=0;orthogonalLoop=1;jettySize=auto;html=1;exitX=1.013;exitY=0.152;exitDx=0;exitDy=0;entryX=0;entryY=0.5;entryDx=0;entryDy=0;exitPerimeter=0;endArrow=diamondThin;endFill=0;endSize=12;" parent="1" source="eKbR7FDYNF4lGTzNF_Ht-17" target="eKbR7FDYNF4lGTzNF_Ht-2" edge="1">
          <mxGeometry relative="1" as="geometry">
            <Array as="points">
              <mxPoint x="580" y="-654" />
              <mxPoint x="580" y="-875" />
            </Array>
          </mxGeometry>
        </mxCell>
        <mxCell id="eKbR7FDYNF4lGTzNF_Ht-28" style="edgeStyle=orthogonalEdgeStyle;rounded=0;orthogonalLoop=1;jettySize=auto;html=1;exitX=1;exitY=0.5;exitDx=0;exitDy=0;entryX=0;entryY=0.5;entryDx=0;entryDy=0;endArrow=diamondThin;endFill=1;endSize=12;" parent="1" source="eKbR7FDYNF4lGTzNF_Ht-22" target="eKbR7FDYNF4lGTzNF_Ht-18" edge="1">
          <mxGeometry relative="1" as="geometry" />
        </mxCell>
        <mxCell id="gbT2mSPt83J29YWyRt1n-10" value="Обработка поставок по плану" style="text;html=1;align=center;verticalAlign=middle;resizable=0;points=[];autosize=1;strokeColor=none;fillColor=none;" parent="1" vertex="1">
          <mxGeometry x="80" y="-532" width="190" height="30" as="geometry" />
        </mxCell>
        <mxCell id="gbT2mSPt83J29YWyRt1n-11" style="edgeStyle=orthogonalEdgeStyle;rounded=0;orthogonalLoop=1;jettySize=auto;html=1;exitX=1.003;exitY=0.243;exitDx=0;exitDy=0;entryX=0;entryY=0.5;entryDx=0;entryDy=0;endArrow=diamondThin;endFill=1;endSize=12;exitPerimeter=0;" parent="1" source="eKbR7FDYNF4lGTzNF_Ht-18" target="eKbR7FDYNF4lGTzNF_Ht-6" edge="1">
          <mxGeometry relative="1" as="geometry">
            <mxPoint x="540" y="-568" as="sourcePoint" />
            <mxPoint x="640" y="-568" as="targetPoint" />
            <Array as="points">
              <mxPoint x="600" y="-607" />
              <mxPoint x="600" y="-725" />
            </Array>
          </mxGeometry>
        </mxCell>
        <mxCell id="gbT2mSPt83J29YWyRt1n-12" style="edgeStyle=orthogonalEdgeStyle;rounded=0;orthogonalLoop=1;jettySize=auto;html=1;exitX=0.75;exitY=0;exitDx=0;exitDy=0;entryX=0.01;entryY=-0.03;entryDx=0;entryDy=0;entryPerimeter=0;endArrow=none;endFill=0;" parent="1" source="eKbR7FDYNF4lGTzNF_Ht-39" target="eKbR7FDYNF4lGTzNF_Ht-37" edge="1">
          <mxGeometry relative="1" as="geometry" />
        </mxCell>
        <mxCell id="gbT2mSPt83J29YWyRt1n-13" value="-БД" style="text;html=1;align=center;verticalAlign=middle;resizable=0;points=[];autosize=1;strokeColor=none;fillColor=none;" parent="1" vertex="1">
          <mxGeometry x="290" y="-1160" width="40" height="30" as="geometry" />
        </mxCell>
        <mxCell id="gbT2mSPt83J29YWyRt1n-14" value="-БД" style="text;html=1;align=center;verticalAlign=middle;resizable=0;points=[];autosize=1;strokeColor=none;fillColor=none;" parent="1" vertex="1">
          <mxGeometry x="580" y="-1070" width="40" height="30" as="geometry" />
        </mxCell>
        <mxCell id="gbT2mSPt83J29YWyRt1n-7" style="edgeStyle=orthogonalEdgeStyle;rounded=0;orthogonalLoop=1;jettySize=auto;html=1;exitX=1;exitY=0.5;exitDx=0;exitDy=0;entryX=0.5;entryY=1;entryDx=0;entryDy=0;dashed=1;endArrow=open;endFill=0;" parent="1" source="eKbR7FDYNF4lGTzNF_Ht-37" target="eKbR7FDYNF4lGTzNF_Ht-13" edge="1">
          <mxGeometry relative="1" as="geometry">
            <Array as="points">
              <mxPoint x="1110" y="-1075" />
              <mxPoint x="1110" y="-310" />
              <mxPoint x="710" y="-310" />
            </Array>
          </mxGeometry>
        </mxCell>
        <mxCell id="gbT2mSPt83J29YWyRt1n-15" value="обращение" style="text;html=1;align=center;verticalAlign=middle;resizable=0;points=[];autosize=1;strokeColor=none;fillColor=none;" parent="1" vertex="1">
          <mxGeometry x="885" y="-1100" width="90" height="30" as="geometry" />
        </mxCell>
        <mxCell id="gbT2mSPt83J29YWyRt1n-16" value="обращение" style="text;html=1;align=center;verticalAlign=middle;resizable=0;points=[];autosize=1;strokeColor=none;fillColor=none;" parent="1" vertex="1">
          <mxGeometry x="450" y="-988" width="90" height="30" as="geometry" />
        </mxCell>
        <mxCell id="gbT2mSPt83J29YWyRt1n-18" value="обращение" style="text;html=1;align=center;verticalAlign=middle;resizable=0;points=[];autosize=1;strokeColor=none;fillColor=none;" parent="1" vertex="1">
          <mxGeometry x="230" y="-1070" width="90" height="30" as="geometry" />
        </mxCell>
        <mxCell id="gbT2mSPt83J29YWyRt1n-19" value="прием/подсчет" style="text;html=1;align=center;verticalAlign=middle;resizable=0;points=[];autosize=1;strokeColor=none;fillColor=none;" parent="1" vertex="1">
          <mxGeometry x="165" y="-460" width="110" height="30" as="geometry" />
        </mxCell>
        <mxCell id="gbT2mSPt83J29YWyRt1n-20" value="создание/изменения" style="text;html=1;align=center;verticalAlign=middle;resizable=0;points=[];autosize=1;strokeColor=none;fillColor=none;" parent="1" vertex="1">
          <mxGeometry x="30" y="-990" width="140" height="30" as="geometry" />
        </mxCell>
        <mxCell id="gbT2mSPt83J29YWyRt1n-21" value="Ведение/заполнение" style="text;html=1;align=center;verticalAlign=middle;resizable=0;points=[];autosize=1;strokeColor=none;fillColor=none;" parent="1" vertex="1">
          <mxGeometry x="320" y="-460" width="140" height="30" as="geometry" />
        </mxCell>
        <mxCell id="gbT2mSPt83J29YWyRt1n-23" value="проверка" style="text;html=1;align=center;verticalAlign=middle;resizable=0;points=[];autosize=1;strokeColor=none;fillColor=none;" parent="1" vertex="1">
          <mxGeometry x="510" y="-958" width="80" height="30" as="geometry" />
        </mxCell>
        <mxCell id="gbT2mSPt83J29YWyRt1n-24" value="создавать" style="text;html=1;align=center;verticalAlign=middle;resizable=0;points=[];autosize=1;strokeColor=none;fillColor=none;" parent="1" vertex="1">
          <mxGeometry x="790" y="-910" width="80" height="30" as="geometry" />
        </mxCell>
        <mxCell id="gbT2mSPt83J29YWyRt1n-25" value="создавать" style="text;html=1;align=center;verticalAlign=middle;resizable=0;points=[];autosize=1;strokeColor=none;fillColor=none;" parent="1" vertex="1">
          <mxGeometry x="780" y="-749" width="80" height="30" as="geometry" />
        </mxCell>
        <mxCell id="gbT2mSPt83J29YWyRt1n-26" value="создавать" style="text;html=1;align=center;verticalAlign=middle;resizable=0;points=[];autosize=1;strokeColor=none;fillColor=none;" parent="1" vertex="1">
          <mxGeometry x="780" y="-638" width="80" height="30" as="geometry" />
        </mxCell>
        <mxCell id="gbT2mSPt83J29YWyRt1n-27" value="создавать" style="text;html=1;align=center;verticalAlign=middle;resizable=0;points=[];autosize=1;strokeColor=none;fillColor=none;" parent="1" vertex="1">
          <mxGeometry x="780" y="-439" width="80" height="30" as="geometry" />
        </mxCell>
        <mxCell id="gbT2mSPt83J29YWyRt1n-28" value="1" style="text;html=1;align=center;verticalAlign=middle;resizable=0;points=[];autosize=1;strokeColor=none;fillColor=none;" parent="1" vertex="1">
          <mxGeometry x="845" y="-700" width="30" height="30" as="geometry" />
        </mxCell>
        <mxCell id="gbT2mSPt83J29YWyRt1n-29" value="1" style="text;html=1;align=center;verticalAlign=middle;resizable=0;points=[];autosize=1;strokeColor=none;fillColor=none;" parent="1" vertex="1">
          <mxGeometry x="845" y="-670" width="30" height="30" as="geometry" />
        </mxCell>
        <mxCell id="gbT2mSPt83J29YWyRt1n-30" value="1" style="text;html=1;align=center;verticalAlign=middle;resizable=0;points=[];autosize=1;strokeColor=none;fillColor=none;" parent="1" vertex="1">
          <mxGeometry x="845" y="-638" width="30" height="30" as="geometry" />
        </mxCell>
        <mxCell id="gbT2mSPt83J29YWyRt1n-31" value="1" style="text;html=1;align=center;verticalAlign=middle;resizable=0;points=[];autosize=1;strokeColor=none;fillColor=none;" parent="1" vertex="1">
          <mxGeometry x="845" y="-611" width="30" height="30" as="geometry" />
        </mxCell>
        <mxCell id="gbT2mSPt83J29YWyRt1n-32" value="*" style="text;html=1;align=center;verticalAlign=middle;resizable=0;points=[];autosize=1;strokeColor=none;fillColor=none;" parent="1" vertex="1">
          <mxGeometry x="790" y="-868" width="30" height="30" as="geometry" />
        </mxCell>
        <mxCell id="gbT2mSPt83J29YWyRt1n-33" value="*" style="text;html=1;align=center;verticalAlign=middle;resizable=0;points=[];autosize=1;strokeColor=none;fillColor=none;" parent="1" vertex="1">
          <mxGeometry x="790" y="-719" width="30" height="30" as="geometry" />
        </mxCell>
        <mxCell id="gbT2mSPt83J29YWyRt1n-34" value="*" style="text;html=1;align=center;verticalAlign=middle;resizable=0;points=[];autosize=1;strokeColor=none;fillColor=none;" parent="1" vertex="1">
          <mxGeometry x="790" y="-581" width="30" height="30" as="geometry" />
        </mxCell>
        <mxCell id="gbT2mSPt83J29YWyRt1n-35" value="*" style="text;html=1;align=center;verticalAlign=middle;resizable=0;points=[];autosize=1;strokeColor=none;fillColor=none;" parent="1" vertex="1">
          <mxGeometry x="790" y="-409" width="30" height="30" as="geometry" />
        </mxCell>
      </root>
    </mxGraphModel>
  </diagram>
  <diagram id="FKIBUhY2sJ1agK3fgPRQ" name="Страница — 3">
    <mxGraphModel dx="2074" dy="2328" grid="1" gridSize="10" guides="1" tooltips="1" connect="1" arrows="1" fold="1" page="1" pageScale="1" pageWidth="827" pageHeight="1169" math="0" shadow="0">
      <root>
        <mxCell id="0" />
        <mxCell id="1" parent="0" />
        <mxCell id="NBUyep_HpOMLxQ6jUTwP-18" style="edgeStyle=orthogonalEdgeStyle;rounded=0;orthogonalLoop=1;jettySize=auto;html=1;exitX=0.5;exitY=1;exitDx=0;exitDy=0;exitPerimeter=0;entryX=0.5;entryY=0;entryDx=0;entryDy=0;" parent="1" source="NBUyep_HpOMLxQ6jUTwP-1" target="NBUyep_HpOMLxQ6jUTwP-3" edge="1">
          <mxGeometry relative="1" as="geometry" />
        </mxCell>
        <mxCell id="NBUyep_HpOMLxQ6jUTwP-1" value="" style="points=[[0.145,0.145,0],[0.5,0,0],[0.855,0.145,0],[1,0.5,0],[0.855,0.855,0],[0.5,1,0],[0.145,0.855,0],[0,0.5,0]];shape=mxgraph.bpmn.event;html=1;verticalLabelPosition=bottom;labelBackgroundColor=#ffffff;verticalAlign=top;align=center;perimeter=ellipsePerimeter;outlineConnect=0;aspect=fixed;outline=standard;symbol=general;" parent="1" vertex="1">
          <mxGeometry x="325" y="-860" width="50" height="50" as="geometry" />
        </mxCell>
        <mxCell id="NBUyep_HpOMLxQ6jUTwP-2" value="" style="points=[[0.145,0.145,0],[0.5,0,0],[0.855,0.145,0],[1,0.5,0],[0.855,0.855,0],[0.5,1,0],[0.145,0.855,0],[0,0.5,0]];shape=mxgraph.bpmn.event;html=1;verticalLabelPosition=bottom;labelBackgroundColor=#ffffff;verticalAlign=top;align=center;perimeter=ellipsePerimeter;outlineConnect=0;aspect=fixed;outline=end;symbol=terminate2;" parent="1" vertex="1">
          <mxGeometry x="325" y="-325" width="50" height="50" as="geometry" />
        </mxCell>
        <mxCell id="NBUyep_HpOMLxQ6jUTwP-17" style="edgeStyle=orthogonalEdgeStyle;rounded=0;orthogonalLoop=1;jettySize=auto;html=1;exitX=0.5;exitY=1;exitDx=0;exitDy=0;entryX=0.5;entryY=0;entryDx=0;entryDy=0;" parent="1" source="NBUyep_HpOMLxQ6jUTwP-3" target="NBUyep_HpOMLxQ6jUTwP-4" edge="1">
          <mxGeometry relative="1" as="geometry" />
        </mxCell>
        <mxCell id="NBUyep_HpOMLxQ6jUTwP-3" value="Создание плана посавок" style="rounded=1;whiteSpace=wrap;html=1;" parent="1" vertex="1">
          <mxGeometry x="290" y="-790" width="120" height="40" as="geometry" />
        </mxCell>
        <mxCell id="NBUyep_HpOMLxQ6jUTwP-4" value="Внесение данных" style="rounded=1;whiteSpace=wrap;html=1;" parent="1" vertex="1">
          <mxGeometry x="290" y="-726.5" width="120" height="40" as="geometry" />
        </mxCell>
        <mxCell id="NBUyep_HpOMLxQ6jUTwP-26" style="edgeStyle=orthogonalEdgeStyle;rounded=0;orthogonalLoop=1;jettySize=auto;html=1;exitX=0.5;exitY=1;exitDx=0;exitDy=0;entryX=0.104;entryY=-0.077;entryDx=0;entryDy=0;entryPerimeter=0;" parent="1" source="NBUyep_HpOMLxQ6jUTwP-5" target="NBUyep_HpOMLxQ6jUTwP-15" edge="1">
          <mxGeometry relative="1" as="geometry" />
        </mxCell>
        <mxCell id="NBUyep_HpOMLxQ6jUTwP-5" value="Ввод номера и даты" style="rounded=1;whiteSpace=wrap;html=1;" parent="1" vertex="1">
          <mxGeometry x="80" y="-610" width="120" height="40" as="geometry" />
        </mxCell>
        <mxCell id="NBUyep_HpOMLxQ6jUTwP-25" style="edgeStyle=orthogonalEdgeStyle;rounded=0;orthogonalLoop=1;jettySize=auto;html=1;exitX=0.5;exitY=1;exitDx=0;exitDy=0;entryX=0.368;entryY=0;entryDx=0;entryDy=0;entryPerimeter=0;" parent="1" source="NBUyep_HpOMLxQ6jUTwP-6" target="NBUyep_HpOMLxQ6jUTwP-15" edge="1">
          <mxGeometry relative="1" as="geometry">
            <mxPoint x="325" y="-550" as="targetPoint" />
          </mxGeometry>
        </mxCell>
        <mxCell id="NBUyep_HpOMLxQ6jUTwP-6" value="Ввод данных о поставщике" style="rounded=1;whiteSpace=wrap;html=1;" parent="1" vertex="1">
          <mxGeometry x="220" y="-610" width="120" height="40" as="geometry" />
        </mxCell>
        <mxCell id="NBUyep_HpOMLxQ6jUTwP-24" style="edgeStyle=orthogonalEdgeStyle;rounded=0;orthogonalLoop=1;jettySize=auto;html=1;exitX=0.5;exitY=1;exitDx=0;exitDy=0;entryX=0.637;entryY=-0.038;entryDx=0;entryDy=0;entryPerimeter=0;" parent="1" source="NBUyep_HpOMLxQ6jUTwP-7" target="NBUyep_HpOMLxQ6jUTwP-15" edge="1">
          <mxGeometry relative="1" as="geometry" />
        </mxCell>
        <mxCell id="NBUyep_HpOMLxQ6jUTwP-7" value="Ввод наименований продукции" style="rounded=1;whiteSpace=wrap;html=1;" parent="1" vertex="1">
          <mxGeometry x="360" y="-610" width="120" height="40" as="geometry" />
        </mxCell>
        <mxCell id="NBUyep_HpOMLxQ6jUTwP-23" style="edgeStyle=orthogonalEdgeStyle;rounded=0;orthogonalLoop=1;jettySize=auto;html=1;exitX=0.5;exitY=1;exitDx=0;exitDy=0;entryX=0.897;entryY=-0.077;entryDx=0;entryDy=0;entryPerimeter=0;" parent="1" source="NBUyep_HpOMLxQ6jUTwP-8" target="NBUyep_HpOMLxQ6jUTwP-15" edge="1">
          <mxGeometry relative="1" as="geometry" />
        </mxCell>
        <mxCell id="NBUyep_HpOMLxQ6jUTwP-8" value="Ввод количества продукции" style="rounded=1;whiteSpace=wrap;html=1;" parent="1" vertex="1">
          <mxGeometry x="500" y="-610" width="120" height="40" as="geometry" />
        </mxCell>
        <mxCell id="NBUyep_HpOMLxQ6jUTwP-13" style="edgeStyle=orthogonalEdgeStyle;rounded=0;orthogonalLoop=1;jettySize=auto;html=1;exitX=0.5;exitY=1;exitDx=0;exitDy=0;entryX=0.5;entryY=0;entryDx=0;entryDy=0;" parent="1" source="NBUyep_HpOMLxQ6jUTwP-9" target="NBUyep_HpOMLxQ6jUTwP-10" edge="1">
          <mxGeometry relative="1" as="geometry" />
        </mxCell>
        <mxCell id="NBUyep_HpOMLxQ6jUTwP-9" value="Сохранение данных" style="rounded=1;whiteSpace=wrap;html=1;" parent="1" vertex="1">
          <mxGeometry x="290" y="-490" width="120" height="40" as="geometry" />
        </mxCell>
        <mxCell id="NBUyep_HpOMLxQ6jUTwP-28" style="edgeStyle=orthogonalEdgeStyle;rounded=0;orthogonalLoop=1;jettySize=auto;html=1;exitX=1;exitY=0.5;exitDx=0;exitDy=0;entryX=1;entryY=0.5;entryDx=0;entryDy=0;" parent="1" source="NBUyep_HpOMLxQ6jUTwP-10" target="NBUyep_HpOMLxQ6jUTwP-14" edge="1">
          <mxGeometry relative="1" as="geometry">
            <Array as="points">
              <mxPoint x="685" y="-395" />
              <mxPoint x="685" y="-655" />
            </Array>
          </mxGeometry>
        </mxCell>
        <mxCell id="NBUyep_HpOMLxQ6jUTwP-10" value="" style="shape=rhombus;html=1;dashed=0;whiteSpace=wrap;perimeter=rhombusPerimeter;" parent="1" vertex="1">
          <mxGeometry x="320" y="-420" width="60" height="50" as="geometry" />
        </mxCell>
        <mxCell id="NBUyep_HpOMLxQ6jUTwP-11" style="edgeStyle=orthogonalEdgeStyle;rounded=0;orthogonalLoop=1;jettySize=auto;html=1;exitX=0.5;exitY=1;exitDx=0;exitDy=0;entryX=0.5;entryY=0;entryDx=0;entryDy=0;entryPerimeter=0;" parent="1" source="NBUyep_HpOMLxQ6jUTwP-10" target="NBUyep_HpOMLxQ6jUTwP-2" edge="1">
          <mxGeometry relative="1" as="geometry" />
        </mxCell>
        <mxCell id="NBUyep_HpOMLxQ6jUTwP-12" value="[успешное сохранение]" style="text;html=1;align=center;verticalAlign=middle;resizable=0;points=[];autosize=1;strokeColor=none;fillColor=none;" parent="1" vertex="1">
          <mxGeometry x="345" y="-369.5" width="150" height="30" as="geometry" />
        </mxCell>
        <mxCell id="NBUyep_HpOMLxQ6jUTwP-19" style="edgeStyle=orthogonalEdgeStyle;rounded=0;orthogonalLoop=1;jettySize=auto;html=1;exitX=0.104;exitY=0.904;exitDx=0;exitDy=0;entryX=0.5;entryY=0;entryDx=0;entryDy=0;exitPerimeter=0;" parent="1" source="NBUyep_HpOMLxQ6jUTwP-14" target="NBUyep_HpOMLxQ6jUTwP-5" edge="1">
          <mxGeometry relative="1" as="geometry" />
        </mxCell>
        <mxCell id="NBUyep_HpOMLxQ6jUTwP-20" style="edgeStyle=orthogonalEdgeStyle;rounded=0;orthogonalLoop=1;jettySize=auto;html=1;exitX=0.368;exitY=0.865;exitDx=0;exitDy=0;entryX=0.5;entryY=0;entryDx=0;entryDy=0;exitPerimeter=0;" parent="1" source="NBUyep_HpOMLxQ6jUTwP-14" target="NBUyep_HpOMLxQ6jUTwP-6" edge="1">
          <mxGeometry relative="1" as="geometry" />
        </mxCell>
        <mxCell id="NBUyep_HpOMLxQ6jUTwP-21" style="edgeStyle=orthogonalEdgeStyle;rounded=0;orthogonalLoop=1;jettySize=auto;html=1;exitX=0.632;exitY=0.981;exitDx=0;exitDy=0;entryX=0.5;entryY=0;entryDx=0;entryDy=0;exitPerimeter=0;" parent="1" source="NBUyep_HpOMLxQ6jUTwP-14" target="NBUyep_HpOMLxQ6jUTwP-7" edge="1">
          <mxGeometry relative="1" as="geometry" />
        </mxCell>
        <mxCell id="NBUyep_HpOMLxQ6jUTwP-22" style="edgeStyle=orthogonalEdgeStyle;rounded=0;orthogonalLoop=1;jettySize=auto;html=1;exitX=0.896;exitY=1.038;exitDx=0;exitDy=0;entryX=0.5;entryY=0;entryDx=0;entryDy=0;exitPerimeter=0;" parent="1" source="NBUyep_HpOMLxQ6jUTwP-14" target="NBUyep_HpOMLxQ6jUTwP-8" edge="1">
          <mxGeometry relative="1" as="geometry" />
        </mxCell>
        <mxCell id="NBUyep_HpOMLxQ6jUTwP-14" value="" style="rounded=0;whiteSpace=wrap;html=1;fillColor=#000000;" parent="1" vertex="1">
          <mxGeometry x="85" y="-660" width="530" height="10" as="geometry" />
        </mxCell>
        <mxCell id="NBUyep_HpOMLxQ6jUTwP-16" style="edgeStyle=orthogonalEdgeStyle;rounded=0;orthogonalLoop=1;jettySize=auto;html=1;exitX=0.5;exitY=1;exitDx=0;exitDy=0;entryX=0.5;entryY=0;entryDx=0;entryDy=0;" parent="1" source="NBUyep_HpOMLxQ6jUTwP-15" target="NBUyep_HpOMLxQ6jUTwP-9" edge="1">
          <mxGeometry relative="1" as="geometry" />
        </mxCell>
        <mxCell id="NBUyep_HpOMLxQ6jUTwP-15" value="" style="rounded=0;whiteSpace=wrap;html=1;fillColor=#000000;" parent="1" vertex="1">
          <mxGeometry x="85" y="-540" width="530" height="10" as="geometry" />
        </mxCell>
        <mxCell id="NBUyep_HpOMLxQ6jUTwP-27" style="edgeStyle=orthogonalEdgeStyle;rounded=0;orthogonalLoop=1;jettySize=auto;html=1;exitX=0.5;exitY=1;exitDx=0;exitDy=0;entryX=0.502;entryY=-0.324;entryDx=0;entryDy=0;entryPerimeter=0;" parent="1" source="NBUyep_HpOMLxQ6jUTwP-4" target="NBUyep_HpOMLxQ6jUTwP-14" edge="1">
          <mxGeometry relative="1" as="geometry" />
        </mxCell>
        <mxCell id="NBUyep_HpOMLxQ6jUTwP-29" value="[ошибка сохранение]" style="text;html=1;align=center;verticalAlign=middle;resizable=0;points=[];autosize=1;strokeColor=none;fillColor=none;" parent="1" vertex="1">
          <mxGeometry x="385" y="-430" width="140" height="30" as="geometry" />
        </mxCell>
        <mxCell id="NBUyep_HpOMLxQ6jUTwP-31" value="" style="points=[[0.145,0.145,0],[0.5,0,0],[0.855,0.145,0],[1,0.5,0],[0.855,0.855,0],[0.5,1,0],[0.145,0.855,0],[0,0.5,0]];shape=mxgraph.bpmn.event;html=1;verticalLabelPosition=bottom;labelBackgroundColor=#ffffff;verticalAlign=top;align=center;perimeter=ellipsePerimeter;outlineConnect=0;aspect=fixed;outline=standard;symbol=general;" parent="1" vertex="1">
          <mxGeometry x="1175" y="-860" width="50" height="50" as="geometry" />
        </mxCell>
        <mxCell id="NBUyep_HpOMLxQ6jUTwP-32" value="" style="points=[[0.145,0.145,0],[0.5,0,0],[0.855,0.145,0],[1,0.5,0],[0.855,0.855,0],[0.5,1,0],[0.145,0.855,0],[0,0.5,0]];shape=mxgraph.bpmn.event;html=1;verticalLabelPosition=bottom;labelBackgroundColor=#ffffff;verticalAlign=top;align=center;perimeter=ellipsePerimeter;outlineConnect=0;aspect=fixed;outline=end;symbol=terminate2;" parent="1" vertex="1">
          <mxGeometry x="1175" y="-385" width="50" height="50" as="geometry" />
        </mxCell>
        <mxCell id="NBUyep_HpOMLxQ6jUTwP-33" style="edgeStyle=orthogonalEdgeStyle;rounded=0;orthogonalLoop=1;jettySize=auto;html=1;exitX=0.5;exitY=1;exitDx=0;exitDy=0;entryX=0.5;entryY=0;entryDx=0;entryDy=0;" parent="1" target="NBUyep_HpOMLxQ6jUTwP-35" edge="1">
          <mxGeometry relative="1" as="geometry">
            <mxPoint x="1200" y="-810" as="sourcePoint" />
          </mxGeometry>
        </mxCell>
        <mxCell id="NBUyep_HpOMLxQ6jUTwP-35" value="Занесение данных" style="rounded=1;whiteSpace=wrap;html=1;" parent="1" vertex="1">
          <mxGeometry x="1140" y="-786.5" width="120" height="40" as="geometry" />
        </mxCell>
        <mxCell id="NBUyep_HpOMLxQ6jUTwP-36" style="edgeStyle=orthogonalEdgeStyle;rounded=0;orthogonalLoop=1;jettySize=auto;html=1;exitX=0.5;exitY=1;exitDx=0;exitDy=0;entryX=0.104;entryY=-0.077;entryDx=0;entryDy=0;entryPerimeter=0;" parent="1" source="NBUyep_HpOMLxQ6jUTwP-37" target="NBUyep_HpOMLxQ6jUTwP-56" edge="1">
          <mxGeometry relative="1" as="geometry" />
        </mxCell>
        <mxCell id="NBUyep_HpOMLxQ6jUTwP-37" value="Ввод регистрационного номера и даты" style="rounded=1;whiteSpace=wrap;html=1;" parent="1" vertex="1">
          <mxGeometry x="860" y="-670" width="120" height="40" as="geometry" />
        </mxCell>
        <mxCell id="NBUyep_HpOMLxQ6jUTwP-38" style="edgeStyle=orthogonalEdgeStyle;rounded=0;orthogonalLoop=1;jettySize=auto;html=1;exitX=0.5;exitY=1;exitDx=0;exitDy=0;entryX=0.368;entryY=0;entryDx=0;entryDy=0;entryPerimeter=0;" parent="1" source="NBUyep_HpOMLxQ6jUTwP-39" target="NBUyep_HpOMLxQ6jUTwP-56" edge="1">
          <mxGeometry relative="1" as="geometry">
            <mxPoint x="1105" y="-610" as="targetPoint" />
          </mxGeometry>
        </mxCell>
        <mxCell id="NBUyep_HpOMLxQ6jUTwP-39" value="Ввод наименование поставщика" style="rounded=1;whiteSpace=wrap;html=1;" parent="1" vertex="1">
          <mxGeometry x="1000" y="-670" width="120" height="40" as="geometry" />
        </mxCell>
        <mxCell id="NBUyep_HpOMLxQ6jUTwP-40" style="edgeStyle=orthogonalEdgeStyle;rounded=0;orthogonalLoop=1;jettySize=auto;html=1;exitX=0.5;exitY=1;exitDx=0;exitDy=0;entryX=0.637;entryY=-0.038;entryDx=0;entryDy=0;entryPerimeter=0;" parent="1" source="NBUyep_HpOMLxQ6jUTwP-41" target="NBUyep_HpOMLxQ6jUTwP-56" edge="1">
          <mxGeometry relative="1" as="geometry" />
        </mxCell>
        <mxCell id="NBUyep_HpOMLxQ6jUTwP-41" value="Ввод наименований товаров" style="rounded=1;whiteSpace=wrap;html=1;" parent="1" vertex="1">
          <mxGeometry x="1140" y="-670" width="120" height="40" as="geometry" />
        </mxCell>
        <mxCell id="NBUyep_HpOMLxQ6jUTwP-42" style="edgeStyle=orthogonalEdgeStyle;rounded=0;orthogonalLoop=1;jettySize=auto;html=1;exitX=0.5;exitY=1;exitDx=0;exitDy=0;entryX=0.897;entryY=-0.077;entryDx=0;entryDy=0;entryPerimeter=0;" parent="1" source="NBUyep_HpOMLxQ6jUTwP-43" target="NBUyep_HpOMLxQ6jUTwP-56" edge="1">
          <mxGeometry relative="1" as="geometry" />
        </mxCell>
        <mxCell id="NBUyep_HpOMLxQ6jUTwP-43" value="Ввод количества поступивших товаров" style="rounded=1;whiteSpace=wrap;html=1;" parent="1" vertex="1">
          <mxGeometry x="1280" y="-670" width="120" height="40" as="geometry" />
        </mxCell>
        <mxCell id="NBUyep_HpOMLxQ6jUTwP-44" style="edgeStyle=orthogonalEdgeStyle;rounded=0;orthogonalLoop=1;jettySize=auto;html=1;exitX=0.5;exitY=1;exitDx=0;exitDy=0;entryX=0.5;entryY=0;entryDx=0;entryDy=0;" parent="1" source="NBUyep_HpOMLxQ6jUTwP-45" target="NBUyep_HpOMLxQ6jUTwP-47" edge="1">
          <mxGeometry relative="1" as="geometry" />
        </mxCell>
        <mxCell id="NBUyep_HpOMLxQ6jUTwP-45" value="Сохранение данных" style="rounded=1;whiteSpace=wrap;html=1;" parent="1" vertex="1">
          <mxGeometry x="1140" y="-550" width="120" height="40" as="geometry" />
        </mxCell>
        <mxCell id="NBUyep_HpOMLxQ6jUTwP-46" style="edgeStyle=orthogonalEdgeStyle;rounded=0;orthogonalLoop=1;jettySize=auto;html=1;exitX=1;exitY=0.5;exitDx=0;exitDy=0;entryX=1;entryY=0.25;entryDx=0;entryDy=0;" parent="1" source="NBUyep_HpOMLxQ6jUTwP-47" target="NBUyep_HpOMLxQ6jUTwP-60" edge="1">
          <mxGeometry relative="1" as="geometry">
            <Array as="points">
              <mxPoint x="1640" y="-455" />
              <mxPoint x="1640" y="-717" />
              <mxPoint x="1610" y="-717" />
            </Array>
          </mxGeometry>
        </mxCell>
        <mxCell id="NBUyep_HpOMLxQ6jUTwP-47" value="" style="shape=rhombus;html=1;dashed=0;whiteSpace=wrap;perimeter=rhombusPerimeter;" parent="1" vertex="1">
          <mxGeometry x="1170" y="-480" width="60" height="50" as="geometry" />
        </mxCell>
        <mxCell id="NBUyep_HpOMLxQ6jUTwP-48" style="edgeStyle=orthogonalEdgeStyle;rounded=0;orthogonalLoop=1;jettySize=auto;html=1;exitX=0.5;exitY=1;exitDx=0;exitDy=0;entryX=0.5;entryY=0;entryDx=0;entryDy=0;entryPerimeter=0;" parent="1" source="NBUyep_HpOMLxQ6jUTwP-47" target="NBUyep_HpOMLxQ6jUTwP-32" edge="1">
          <mxGeometry relative="1" as="geometry" />
        </mxCell>
        <mxCell id="NBUyep_HpOMLxQ6jUTwP-49" value="[успешное сохранение]" style="text;html=1;align=center;verticalAlign=middle;resizable=0;points=[];autosize=1;strokeColor=none;fillColor=none;" parent="1" vertex="1">
          <mxGeometry x="1195" y="-429.5" width="150" height="30" as="geometry" />
        </mxCell>
        <mxCell id="NBUyep_HpOMLxQ6jUTwP-50" style="edgeStyle=orthogonalEdgeStyle;rounded=0;orthogonalLoop=1;jettySize=auto;html=1;exitX=0.104;exitY=0.904;exitDx=0;exitDy=0;entryX=0.5;entryY=0;entryDx=0;entryDy=0;exitPerimeter=0;" parent="1" source="NBUyep_HpOMLxQ6jUTwP-54" target="NBUyep_HpOMLxQ6jUTwP-37" edge="1">
          <mxGeometry relative="1" as="geometry" />
        </mxCell>
        <mxCell id="NBUyep_HpOMLxQ6jUTwP-51" style="edgeStyle=orthogonalEdgeStyle;rounded=0;orthogonalLoop=1;jettySize=auto;html=1;exitX=0.368;exitY=0.865;exitDx=0;exitDy=0;entryX=0.5;entryY=0;entryDx=0;entryDy=0;exitPerimeter=0;" parent="1" source="NBUyep_HpOMLxQ6jUTwP-54" target="NBUyep_HpOMLxQ6jUTwP-39" edge="1">
          <mxGeometry relative="1" as="geometry" />
        </mxCell>
        <mxCell id="NBUyep_HpOMLxQ6jUTwP-52" style="edgeStyle=orthogonalEdgeStyle;rounded=0;orthogonalLoop=1;jettySize=auto;html=1;exitX=0.632;exitY=0.981;exitDx=0;exitDy=0;entryX=0.5;entryY=0;entryDx=0;entryDy=0;exitPerimeter=0;" parent="1" source="NBUyep_HpOMLxQ6jUTwP-54" target="NBUyep_HpOMLxQ6jUTwP-41" edge="1">
          <mxGeometry relative="1" as="geometry" />
        </mxCell>
        <mxCell id="NBUyep_HpOMLxQ6jUTwP-53" style="edgeStyle=orthogonalEdgeStyle;rounded=0;orthogonalLoop=1;jettySize=auto;html=1;exitX=0.896;exitY=1.038;exitDx=0;exitDy=0;entryX=0.5;entryY=0;entryDx=0;entryDy=0;exitPerimeter=0;" parent="1" source="NBUyep_HpOMLxQ6jUTwP-54" target="NBUyep_HpOMLxQ6jUTwP-43" edge="1">
          <mxGeometry relative="1" as="geometry" />
        </mxCell>
        <mxCell id="NBUyep_HpOMLxQ6jUTwP-55" style="edgeStyle=orthogonalEdgeStyle;rounded=0;orthogonalLoop=1;jettySize=auto;html=1;exitX=0.632;exitY=1.317;exitDx=0;exitDy=0;entryX=0.5;entryY=0;entryDx=0;entryDy=0;exitPerimeter=0;" parent="1" source="NBUyep_HpOMLxQ6jUTwP-56" target="NBUyep_HpOMLxQ6jUTwP-45" edge="1">
          <mxGeometry relative="1" as="geometry" />
        </mxCell>
        <mxCell id="NBUyep_HpOMLxQ6jUTwP-57" style="edgeStyle=orthogonalEdgeStyle;rounded=0;orthogonalLoop=1;jettySize=auto;html=1;exitX=0.5;exitY=1;exitDx=0;exitDy=0;entryX=0.357;entryY=-0.1;entryDx=0;entryDy=0;entryPerimeter=0;" parent="1" source="NBUyep_HpOMLxQ6jUTwP-35" target="NBUyep_HpOMLxQ6jUTwP-60" edge="1">
          <mxGeometry relative="1" as="geometry" />
        </mxCell>
        <mxCell id="NBUyep_HpOMLxQ6jUTwP-58" value="[ошибка сохранение]" style="text;html=1;align=center;verticalAlign=middle;resizable=0;points=[];autosize=1;strokeColor=none;fillColor=none;" parent="1" vertex="1">
          <mxGeometry x="1235" y="-490" width="140" height="30" as="geometry" />
        </mxCell>
        <mxCell id="NBUyep_HpOMLxQ6jUTwP-59" value="Ввод количества бракованной продукции" style="rounded=1;whiteSpace=wrap;html=1;" parent="1" vertex="1">
          <mxGeometry x="1420" y="-670" width="120" height="40" as="geometry" />
        </mxCell>
        <mxCell id="NBUyep_HpOMLxQ6jUTwP-61" style="edgeStyle=orthogonalEdgeStyle;rounded=0;orthogonalLoop=1;jettySize=auto;html=1;exitX=0.886;exitY=0.9;exitDx=0;exitDy=0;entryX=0.5;entryY=0;entryDx=0;entryDy=0;exitPerimeter=0;" parent="1" source="NBUyep_HpOMLxQ6jUTwP-60" target="NBUyep_HpOMLxQ6jUTwP-59" edge="1">
          <mxGeometry relative="1" as="geometry" />
        </mxCell>
        <mxCell id="NBUyep_HpOMLxQ6jUTwP-63" style="edgeStyle=orthogonalEdgeStyle;rounded=0;orthogonalLoop=1;jettySize=auto;html=1;exitX=0.5;exitY=1;exitDx=0;exitDy=0;entryX=0.726;entryY=0.205;entryDx=0;entryDy=0;entryPerimeter=0;" parent="1" source="NBUyep_HpOMLxQ6jUTwP-59" target="NBUyep_HpOMLxQ6jUTwP-62" edge="1">
          <mxGeometry relative="1" as="geometry" />
        </mxCell>
        <mxCell id="NBUyep_HpOMLxQ6jUTwP-64" value="" style="group" parent="1" connectable="0" vertex="1">
          <mxGeometry x="865" y="-720" width="675" height="10" as="geometry" />
        </mxCell>
        <mxCell id="NBUyep_HpOMLxQ6jUTwP-54" value="" style="rounded=0;whiteSpace=wrap;html=1;fillColor=#000000;" parent="NBUyep_HpOMLxQ6jUTwP-64" vertex="1">
          <mxGeometry width="530" height="10" as="geometry" />
        </mxCell>
        <mxCell id="NBUyep_HpOMLxQ6jUTwP-60" value="" style="rounded=0;whiteSpace=wrap;html=1;fillColor=#000000;" parent="NBUyep_HpOMLxQ6jUTwP-64" vertex="1">
          <mxGeometry x="145" width="530" height="10" as="geometry" />
        </mxCell>
        <mxCell id="NBUyep_HpOMLxQ6jUTwP-65" value="" style="group" parent="1" connectable="0" vertex="1">
          <mxGeometry x="865" y="-600" width="675" height="10" as="geometry" />
        </mxCell>
        <mxCell id="NBUyep_HpOMLxQ6jUTwP-56" value="" style="rounded=0;whiteSpace=wrap;html=1;fillColor=#000000;" parent="NBUyep_HpOMLxQ6jUTwP-65" vertex="1">
          <mxGeometry width="530" height="10" as="geometry" />
        </mxCell>
        <mxCell id="NBUyep_HpOMLxQ6jUTwP-62" value="" style="rounded=0;whiteSpace=wrap;html=1;fillColor=#000000;" parent="NBUyep_HpOMLxQ6jUTwP-65" vertex="1">
          <mxGeometry x="455" width="220" height="10" as="geometry" />
        </mxCell>
        <mxCell id="NBUyep_HpOMLxQ6jUTwP-66" value="" style="points=[[0.145,0.145,0],[0.5,0,0],[0.855,0.145,0],[1,0.5,0],[0.855,0.855,0],[0.5,1,0],[0.145,0.855,0],[0,0.5,0]];shape=mxgraph.bpmn.event;html=1;verticalLabelPosition=bottom;labelBackgroundColor=#ffffff;verticalAlign=top;align=center;perimeter=ellipsePerimeter;outlineConnect=0;aspect=fixed;outline=standard;symbol=general;" parent="1" vertex="1">
          <mxGeometry x="285" y="120" width="50" height="50" as="geometry" />
        </mxCell>
        <mxCell id="NBUyep_HpOMLxQ6jUTwP-67" style="edgeStyle=orthogonalEdgeStyle;rounded=0;orthogonalLoop=1;jettySize=auto;html=1;exitX=0.5;exitY=1;exitDx=0;exitDy=0;entryX=0.5;entryY=0;entryDx=0;entryDy=0;" parent="1" target="NBUyep_HpOMLxQ6jUTwP-68" edge="1">
          <mxGeometry relative="1" as="geometry">
            <mxPoint x="310" y="170" as="sourcePoint" />
          </mxGeometry>
        </mxCell>
        <mxCell id="NBUyep_HpOMLxQ6jUTwP-78" value="" style="edgeStyle=orthogonalEdgeStyle;rounded=0;orthogonalLoop=1;jettySize=auto;html=1;" parent="1" source="NBUyep_HpOMLxQ6jUTwP-68" target="NBUyep_HpOMLxQ6jUTwP-72" edge="1">
          <mxGeometry relative="1" as="geometry" />
        </mxCell>
        <mxCell id="NBUyep_HpOMLxQ6jUTwP-68" value="Мониторинг поступления продукции" style="rounded=1;whiteSpace=wrap;html=1;" parent="1" vertex="1">
          <mxGeometry x="250" y="193.5" width="120" height="40" as="geometry" />
        </mxCell>
        <mxCell id="NBUyep_HpOMLxQ6jUTwP-80" style="edgeStyle=orthogonalEdgeStyle;rounded=0;orthogonalLoop=1;jettySize=auto;html=1;exitX=0;exitY=0.5;exitDx=0;exitDy=0;entryX=0.5;entryY=0;entryDx=0;entryDy=0;" parent="1" source="NBUyep_HpOMLxQ6jUTwP-69" target="NBUyep_HpOMLxQ6jUTwP-74" edge="1">
          <mxGeometry relative="1" as="geometry" />
        </mxCell>
        <mxCell id="NBUyep_HpOMLxQ6jUTwP-81" style="edgeStyle=orthogonalEdgeStyle;rounded=0;orthogonalLoop=1;jettySize=auto;html=1;exitX=0.5;exitY=1;exitDx=0;exitDy=0;entryX=0.5;entryY=0;entryDx=0;entryDy=0;" parent="1" source="NBUyep_HpOMLxQ6jUTwP-69" target="NBUyep_HpOMLxQ6jUTwP-73" edge="1">
          <mxGeometry relative="1" as="geometry" />
        </mxCell>
        <mxCell id="NBUyep_HpOMLxQ6jUTwP-82" style="edgeStyle=orthogonalEdgeStyle;rounded=0;orthogonalLoop=1;jettySize=auto;html=1;exitX=1;exitY=0.5;exitDx=0;exitDy=0;entryX=0.5;entryY=0;entryDx=0;entryDy=0;" parent="1" source="NBUyep_HpOMLxQ6jUTwP-69" target="NBUyep_HpOMLxQ6jUTwP-75" edge="1">
          <mxGeometry relative="1" as="geometry" />
        </mxCell>
        <mxCell id="NBUyep_HpOMLxQ6jUTwP-69" value="" style="shape=rhombus;html=1;dashed=0;whiteSpace=wrap;perimeter=rhombusPerimeter;" parent="1" vertex="1">
          <mxGeometry x="280" y="330" width="60" height="50" as="geometry" />
        </mxCell>
        <mxCell id="NBUyep_HpOMLxQ6jUTwP-70" value="" style="points=[[0.145,0.145,0],[0.5,0,0],[0.855,0.145,0],[1,0.5,0],[0.855,0.855,0],[0.5,1,0],[0.145,0.855,0],[0,0.5,0]];shape=mxgraph.bpmn.event;html=1;verticalLabelPosition=bottom;labelBackgroundColor=#ffffff;verticalAlign=top;align=center;perimeter=ellipsePerimeter;outlineConnect=0;aspect=fixed;outline=end;symbol=terminate2;" parent="1" vertex="1">
          <mxGeometry x="285" y="780" width="50" height="50" as="geometry" />
        </mxCell>
        <mxCell id="NBUyep_HpOMLxQ6jUTwP-79" value="" style="edgeStyle=orthogonalEdgeStyle;rounded=0;orthogonalLoop=1;jettySize=auto;html=1;" parent="1" source="NBUyep_HpOMLxQ6jUTwP-72" target="NBUyep_HpOMLxQ6jUTwP-69" edge="1">
          <mxGeometry relative="1" as="geometry" />
        </mxCell>
        <mxCell id="NBUyep_HpOMLxQ6jUTwP-72" value="Формирование документов" style="rounded=1;whiteSpace=wrap;html=1;" parent="1" vertex="1">
          <mxGeometry x="250" y="260" width="120" height="40" as="geometry" />
        </mxCell>
        <mxCell id="NBUyep_HpOMLxQ6jUTwP-84" style="edgeStyle=orthogonalEdgeStyle;rounded=0;orthogonalLoop=1;jettySize=auto;html=1;exitX=0.5;exitY=1;exitDx=0;exitDy=0;entryX=0.5;entryY=0;entryDx=0;entryDy=0;" parent="1" source="NBUyep_HpOMLxQ6jUTwP-73" target="NBUyep_HpOMLxQ6jUTwP-77" edge="1">
          <mxGeometry relative="1" as="geometry" />
        </mxCell>
        <mxCell id="NBUyep_HpOMLxQ6jUTwP-73" value="Сформировать акт принятия товара" style="rounded=1;whiteSpace=wrap;html=1;" parent="1" vertex="1">
          <mxGeometry x="250" y="440" width="120" height="40" as="geometry" />
        </mxCell>
        <mxCell id="NBUyep_HpOMLxQ6jUTwP-83" style="edgeStyle=orthogonalEdgeStyle;rounded=0;orthogonalLoop=1;jettySize=auto;html=1;exitX=0.5;exitY=1;exitDx=0;exitDy=0;entryX=0;entryY=0.5;entryDx=0;entryDy=0;" parent="1" source="NBUyep_HpOMLxQ6jUTwP-74" target="NBUyep_HpOMLxQ6jUTwP-77" edge="1">
          <mxGeometry relative="1" as="geometry" />
        </mxCell>
        <mxCell id="NBUyep_HpOMLxQ6jUTwP-74" value="Сформировать акт расхождения товара" style="rounded=1;whiteSpace=wrap;html=1;" parent="1" vertex="1">
          <mxGeometry x="80" y="440" width="120" height="40" as="geometry" />
        </mxCell>
        <mxCell id="NBUyep_HpOMLxQ6jUTwP-85" style="edgeStyle=orthogonalEdgeStyle;rounded=0;orthogonalLoop=1;jettySize=auto;html=1;exitX=0.5;exitY=1;exitDx=0;exitDy=0;entryX=1;entryY=0.5;entryDx=0;entryDy=0;" parent="1" source="NBUyep_HpOMLxQ6jUTwP-75" target="NBUyep_HpOMLxQ6jUTwP-77" edge="1">
          <mxGeometry relative="1" as="geometry" />
        </mxCell>
        <mxCell id="NBUyep_HpOMLxQ6jUTwP-75" value="Сформировать акт бракованного товара" style="rounded=1;whiteSpace=wrap;html=1;" parent="1" vertex="1">
          <mxGeometry x="420" y="440" width="120" height="40" as="geometry" />
        </mxCell>
        <mxCell id="NBUyep_HpOMLxQ6jUTwP-96" style="edgeStyle=orthogonalEdgeStyle;rounded=0;orthogonalLoop=1;jettySize=auto;html=1;exitX=0.5;exitY=1;exitDx=0;exitDy=0;entryX=0.5;entryY=0;entryDx=0;entryDy=0;" parent="1" source="NBUyep_HpOMLxQ6jUTwP-77" target="NBUyep_HpOMLxQ6jUTwP-89" edge="1">
          <mxGeometry relative="1" as="geometry" />
        </mxCell>
        <mxCell id="NBUyep_HpOMLxQ6jUTwP-77" value="печать" style="rounded=1;whiteSpace=wrap;html=1;" parent="1" vertex="1">
          <mxGeometry x="250" y="540" width="120" height="40" as="geometry" />
        </mxCell>
        <mxCell id="NBUyep_HpOMLxQ6jUTwP-86" value="[нет расхождений в поставке]" style="text;html=1;align=center;verticalAlign=middle;resizable=0;points=[];autosize=1;strokeColor=none;fillColor=none;" parent="1" vertex="1">
          <mxGeometry x="230" y="398" width="190" height="30" as="geometry" />
        </mxCell>
        <mxCell id="NBUyep_HpOMLxQ6jUTwP-87" value="[есть бракованная продукция]" style="text;html=1;align=center;verticalAlign=middle;resizable=0;points=[];autosize=1;strokeColor=none;fillColor=none;" parent="1" vertex="1">
          <mxGeometry x="335" y="330" width="190" height="30" as="geometry" />
        </mxCell>
        <mxCell id="NBUyep_HpOMLxQ6jUTwP-88" value="[есть расхождение в количестве&lt;br&gt;товара]" style="text;html=1;align=center;verticalAlign=middle;resizable=0;points=[];autosize=1;strokeColor=none;fillColor=none;" parent="1" vertex="1">
          <mxGeometry x="105" y="323" width="200" height="40" as="geometry" />
        </mxCell>
        <mxCell id="NBUyep_HpOMLxQ6jUTwP-91" style="edgeStyle=orthogonalEdgeStyle;rounded=0;orthogonalLoop=1;jettySize=auto;html=1;exitX=0.5;exitY=1;exitDx=0;exitDy=0;entryX=0.5;entryY=0;entryDx=0;entryDy=0;" parent="1" source="NBUyep_HpOMLxQ6jUTwP-89" target="NBUyep_HpOMLxQ6jUTwP-90" edge="1">
          <mxGeometry relative="1" as="geometry" />
        </mxCell>
        <mxCell id="NBUyep_HpOMLxQ6jUTwP-89" value="Проверка на иные отличия в поставке" style="rounded=1;whiteSpace=wrap;html=1;" parent="1" vertex="1">
          <mxGeometry x="250" y="620" width="120" height="40" as="geometry" />
        </mxCell>
        <mxCell id="NBUyep_HpOMLxQ6jUTwP-94" style="edgeStyle=orthogonalEdgeStyle;rounded=0;orthogonalLoop=1;jettySize=auto;html=1;exitX=1;exitY=0.5;exitDx=0;exitDy=0;entryX=1;entryY=0;entryDx=0;entryDy=0;" parent="1" source="NBUyep_HpOMLxQ6jUTwP-90" target="NBUyep_HpOMLxQ6jUTwP-69" edge="1">
          <mxGeometry relative="1" as="geometry">
            <Array as="points">
              <mxPoint x="575" y="715" />
              <mxPoint x="575" y="320" />
              <mxPoint x="325" y="320" />
            </Array>
          </mxGeometry>
        </mxCell>
        <mxCell id="NBUyep_HpOMLxQ6jUTwP-90" value="" style="shape=rhombus;html=1;dashed=0;whiteSpace=wrap;perimeter=rhombusPerimeter;" parent="1" vertex="1">
          <mxGeometry x="280" y="690" width="60" height="50" as="geometry" />
        </mxCell>
        <mxCell id="NBUyep_HpOMLxQ6jUTwP-92" style="edgeStyle=orthogonalEdgeStyle;rounded=0;orthogonalLoop=1;jettySize=auto;html=1;exitX=0.5;exitY=1;exitDx=0;exitDy=0;entryX=0.5;entryY=0;entryDx=0;entryDy=0;entryPerimeter=0;" parent="1" source="NBUyep_HpOMLxQ6jUTwP-90" target="NBUyep_HpOMLxQ6jUTwP-70" edge="1">
          <mxGeometry relative="1" as="geometry" />
        </mxCell>
        <mxCell id="NBUyep_HpOMLxQ6jUTwP-93" value="[иных нет]" style="text;html=1;align=center;verticalAlign=middle;resizable=0;points=[];autosize=1;strokeColor=none;fillColor=none;" parent="1" vertex="1">
          <mxGeometry x="315" y="740" width="80" height="30" as="geometry" />
        </mxCell>
        <mxCell id="NBUyep_HpOMLxQ6jUTwP-95" value="[необходимо сформировать иные акт]" style="text;html=1;align=center;verticalAlign=middle;resizable=0;points=[];autosize=1;strokeColor=none;fillColor=none;" parent="1" vertex="1">
          <mxGeometry x="335" y="680" width="240" height="30" as="geometry" />
        </mxCell>
      </root>
    </mxGraphModel>
  </diagram>
  <diagram id="ANEtXsMEevDK-7YmPr74" name="Страница — 4">
    <mxGraphModel dx="2074" dy="1159" grid="1" gridSize="10" guides="1" tooltips="1" connect="1" arrows="1" fold="1" page="1" pageScale="1" pageWidth="827" pageHeight="1169" math="0" shadow="0">
      <root>
        <mxCell id="0" />
        <mxCell id="1" parent="0" />
        <mxCell id="0jWFzgtapY-xI2TfRLbG-1" value="Менеджер&amp;nbsp;&lt;br&gt;Инвентаризации" style="shape=umlActor;verticalLabelPosition=bottom;verticalAlign=top;html=1;outlineConnect=0;" parent="1" vertex="1">
          <mxGeometry x="180" y="90" width="30" height="60" as="geometry" />
        </mxCell>
        <mxCell id="0jWFzgtapY-xI2TfRLbG-2" value="Работник &lt;br&gt;склада" style="shape=umlActor;verticalLabelPosition=bottom;verticalAlign=top;html=1;outlineConnect=0;" parent="1" vertex="1">
          <mxGeometry x="500" y="90" width="30" height="60" as="geometry" />
        </mxCell>
        <mxCell id="0jWFzgtapY-xI2TfRLbG-3" value="Начальник &lt;br&gt;склада" style="shape=umlActor;verticalLabelPosition=bottom;verticalAlign=top;html=1;outlineConnect=0;" parent="1" vertex="1">
          <mxGeometry x="660" y="90" width="30" height="60" as="geometry" />
        </mxCell>
        <mxCell id="0jWFzgtapY-xI2TfRLbG-4" value="АИС" style="shape=umlActor;verticalLabelPosition=bottom;verticalAlign=top;html=1;outlineConnect=0;" parent="1" vertex="1">
          <mxGeometry x="360" y="90" width="30" height="60" as="geometry" />
        </mxCell>
        <mxCell id="0jWFzgtapY-xI2TfRLbG-5" value="Создание плана поставки" style="text;html=1;align=center;verticalAlign=middle;whiteSpace=wrap;rounded=0;" parent="1" vertex="1">
          <mxGeometry x="210" y="190" width="150" height="30" as="geometry" />
        </mxCell>
        <mxCell id="0jWFzgtapY-xI2TfRLbG-6" value="План создан" style="text;html=1;align=center;verticalAlign=middle;whiteSpace=wrap;rounded=0;" parent="1" vertex="1">
          <mxGeometry x="210" y="230" width="150" height="30" as="geometry" />
        </mxCell>
        <mxCell id="0jWFzgtapY-xI2TfRLbG-7" value="Внесение данных поставки" style="text;html=1;align=center;verticalAlign=middle;whiteSpace=wrap;rounded=0;" parent="1" vertex="1">
          <mxGeometry x="210" y="270" width="150" height="30" as="geometry" />
        </mxCell>
        <mxCell id="0jWFzgtapY-xI2TfRLbG-8" value="Данные поставки внесены" style="text;html=1;align=center;verticalAlign=middle;whiteSpace=wrap;rounded=0;" parent="1" vertex="1">
          <mxGeometry x="210" y="310" width="150" height="30" as="geometry" />
        </mxCell>
        <mxCell id="0jWFzgtapY-xI2TfRLbG-9" value="Прием продукции&lt;br&gt;по плану" style="text;html=1;align=center;verticalAlign=middle;whiteSpace=wrap;rounded=0;" parent="1" vertex="1">
          <mxGeometry x="526" y="200" width="110" height="30" as="geometry" />
        </mxCell>
        <mxCell id="0jWFzgtapY-xI2TfRLbG-10" value="Подсчет продукции&lt;br&gt;по плану" style="text;html=1;align=center;verticalAlign=middle;whiteSpace=wrap;rounded=0;" parent="1" vertex="1">
          <mxGeometry x="526" y="290" width="110" height="30" as="geometry" />
        </mxCell>
        <mxCell id="0jWFzgtapY-xI2TfRLbG-11" value="Сохранение данных" style="text;html=1;align=center;verticalAlign=middle;whiteSpace=wrap;rounded=0;" parent="1" vertex="1">
          <mxGeometry x="210" y="350" width="150" height="30" as="geometry" />
        </mxCell>
        <mxCell id="0jWFzgtapY-xI2TfRLbG-12" value="Данные сохранены" style="text;html=1;align=center;verticalAlign=middle;whiteSpace=wrap;rounded=0;" parent="1" vertex="1">
          <mxGeometry x="210" y="380" width="150" height="30" as="geometry" />
        </mxCell>
        <mxCell id="0jWFzgtapY-xI2TfRLbG-13" value="Занесение данных" style="text;html=1;align=center;verticalAlign=middle;whiteSpace=wrap;rounded=0;" parent="1" vertex="1">
          <mxGeometry x="370" y="440" width="150" height="30" as="geometry" />
        </mxCell>
        <mxCell id="0jWFzgtapY-xI2TfRLbG-14" value="Внесение данных" style="text;html=1;align=center;verticalAlign=middle;whiteSpace=wrap;rounded=0;" parent="1" vertex="1">
          <mxGeometry x="369" y="480" width="150" height="30" as="geometry" />
        </mxCell>
        <mxCell id="0jWFzgtapY-xI2TfRLbG-15" value="Сохранение данных" style="text;html=1;align=center;verticalAlign=middle;whiteSpace=wrap;rounded=0;" parent="1" vertex="1">
          <mxGeometry x="369" y="530" width="150" height="30" as="geometry" />
        </mxCell>
        <mxCell id="0jWFzgtapY-xI2TfRLbG-16" value="Данные сохранены" style="text;html=1;align=center;verticalAlign=middle;whiteSpace=wrap;rounded=0;" parent="1" vertex="1">
          <mxGeometry x="369" y="560" width="150" height="30" as="geometry" />
        </mxCell>
        <mxCell id="0jWFzgtapY-xI2TfRLbG-17" value="Мониторинг поступления продукции" style="text;html=1;align=center;verticalAlign=middle;whiteSpace=wrap;rounded=0;" parent="1" vertex="1">
          <mxGeometry x="440" y="620" width="150" height="30" as="geometry" />
        </mxCell>
        <mxCell id="0jWFzgtapY-xI2TfRLbG-18" value="Результаты" style="text;html=1;align=center;verticalAlign=middle;whiteSpace=wrap;rounded=0;" parent="1" vertex="1">
          <mxGeometry x="440" y="646" width="150" height="30" as="geometry" />
        </mxCell>
        <mxCell id="0jWFzgtapY-xI2TfRLbG-19" value="Формирование документов" style="text;html=1;align=center;verticalAlign=middle;whiteSpace=wrap;rounded=0;" parent="1" vertex="1">
          <mxGeometry x="440" y="710" width="150" height="30" as="geometry" />
        </mxCell>
        <mxCell id="0jWFzgtapY-xI2TfRLbG-20" value="Готовые результаты" style="text;html=1;align=center;verticalAlign=middle;whiteSpace=wrap;rounded=0;" parent="1" vertex="1">
          <mxGeometry x="440" y="740" width="150" height="30" as="geometry" />
        </mxCell>
        <mxCell id="0jWFzgtapY-xI2TfRLbG-21" value="" style="endArrow=none;dashed=1;html=1;rounded=0;entryX=0.5;entryY=0.5;entryDx=0;entryDy=0;entryPerimeter=0;" parent="1" target="0jWFzgtapY-xI2TfRLbG-1" edge="1">
          <mxGeometry width="50" height="50" relative="1" as="geometry">
            <mxPoint x="195" y="810" as="sourcePoint" />
            <mxPoint x="450" y="470" as="targetPoint" />
          </mxGeometry>
        </mxCell>
        <mxCell id="0jWFzgtapY-xI2TfRLbG-22" value="" style="endArrow=none;dashed=1;html=1;rounded=0;entryX=0.5;entryY=0.5;entryDx=0;entryDy=0;entryPerimeter=0;" parent="1" edge="1">
          <mxGeometry width="50" height="50" relative="1" as="geometry">
            <mxPoint x="374.65999999999997" y="817" as="sourcePoint" />
            <mxPoint x="374.65999999999997" y="127" as="targetPoint" />
          </mxGeometry>
        </mxCell>
        <mxCell id="0jWFzgtapY-xI2TfRLbG-23" value="" style="endArrow=none;dashed=1;html=1;rounded=0;entryX=0.5;entryY=0.5;entryDx=0;entryDy=0;entryPerimeter=0;" parent="1" edge="1">
          <mxGeometry width="50" height="50" relative="1" as="geometry">
            <mxPoint x="514.66" y="817" as="sourcePoint" />
            <mxPoint x="514.66" y="127" as="targetPoint" />
          </mxGeometry>
        </mxCell>
        <mxCell id="0jWFzgtapY-xI2TfRLbG-24" value="" style="endArrow=none;dashed=1;html=1;rounded=0;entryX=0.5;entryY=0.5;entryDx=0;entryDy=0;entryPerimeter=0;" parent="1" edge="1">
          <mxGeometry width="50" height="50" relative="1" as="geometry">
            <mxPoint x="674.66" y="820" as="sourcePoint" />
            <mxPoint x="674.66" y="130" as="targetPoint" />
          </mxGeometry>
        </mxCell>
        <mxCell id="0jWFzgtapY-xI2TfRLbG-26" value="" style="rounded=0;whiteSpace=wrap;html=1;" parent="1" vertex="1">
          <mxGeometry x="365" y="185" width="20" height="75" as="geometry" />
        </mxCell>
        <mxCell id="0jWFzgtapY-xI2TfRLbG-27" value="" style="rounded=0;whiteSpace=wrap;html=1;" parent="1" vertex="1">
          <mxGeometry x="365" y="270" width="20" height="75" as="geometry" />
        </mxCell>
        <mxCell id="0jWFzgtapY-xI2TfRLbG-28" value="" style="rounded=0;whiteSpace=wrap;html=1;" parent="1" vertex="1">
          <mxGeometry x="365" y="357.5" width="20" height="52.5" as="geometry" />
        </mxCell>
        <mxCell id="0jWFzgtapY-xI2TfRLbG-29" value="" style="rounded=0;whiteSpace=wrap;html=1;" parent="1" vertex="1">
          <mxGeometry x="365" y="448" width="20" height="60" as="geometry" />
        </mxCell>
        <mxCell id="0jWFzgtapY-xI2TfRLbG-30" value="" style="rounded=0;whiteSpace=wrap;html=1;" parent="1" vertex="1">
          <mxGeometry x="365" y="531" width="20" height="60" as="geometry" />
        </mxCell>
        <mxCell id="0jWFzgtapY-xI2TfRLbG-55" style="edgeStyle=orthogonalEdgeStyle;rounded=0;orthogonalLoop=1;jettySize=auto;html=1;exitX=1;exitY=0.25;exitDx=0;exitDy=0;entryX=0;entryY=0.25;entryDx=0;entryDy=0;" parent="1" source="0jWFzgtapY-xI2TfRLbG-31" target="0jWFzgtapY-xI2TfRLbG-40" edge="1">
          <mxGeometry relative="1" as="geometry" />
        </mxCell>
        <mxCell id="0jWFzgtapY-xI2TfRLbG-31" value="" style="rounded=0;whiteSpace=wrap;html=1;" parent="1" vertex="1">
          <mxGeometry x="365" y="620" width="20" height="60" as="geometry" />
        </mxCell>
        <mxCell id="0jWFzgtapY-xI2TfRLbG-32" value="" style="rounded=0;whiteSpace=wrap;html=1;" parent="1" vertex="1">
          <mxGeometry x="365" y="695" width="20" height="75" as="geometry" />
        </mxCell>
        <mxCell id="0jWFzgtapY-xI2TfRLbG-33" value="" style="rounded=0;whiteSpace=wrap;html=1;" parent="1" vertex="1">
          <mxGeometry x="505" y="190" width="20" height="60" as="geometry" />
        </mxCell>
        <mxCell id="0jWFzgtapY-xI2TfRLbG-34" value="" style="rounded=0;whiteSpace=wrap;html=1;" parent="1" vertex="1">
          <mxGeometry x="505" y="275" width="20" height="60" as="geometry" />
        </mxCell>
        <mxCell id="0jWFzgtapY-xI2TfRLbG-35" value="" style="rounded=0;whiteSpace=wrap;html=1;" parent="1" vertex="1">
          <mxGeometry x="185" y="185" width="20" height="75" as="geometry" />
        </mxCell>
        <mxCell id="0jWFzgtapY-xI2TfRLbG-36" value="" style="rounded=0;whiteSpace=wrap;html=1;" parent="1" vertex="1">
          <mxGeometry x="185" y="269" width="20" height="75" as="geometry" />
        </mxCell>
        <mxCell id="0jWFzgtapY-xI2TfRLbG-37" value="" style="rounded=0;whiteSpace=wrap;html=1;" parent="1" vertex="1">
          <mxGeometry x="185" y="357.5" width="20" height="62.5" as="geometry" />
        </mxCell>
        <mxCell id="0jWFzgtapY-xI2TfRLbG-39" value="" style="rounded=0;whiteSpace=wrap;html=1;" parent="1" vertex="1">
          <mxGeometry x="506" y="531" width="20" height="62.5" as="geometry" />
        </mxCell>
        <mxCell id="0jWFzgtapY-xI2TfRLbG-56" style="edgeStyle=orthogonalEdgeStyle;rounded=0;orthogonalLoop=1;jettySize=auto;html=1;exitX=0;exitY=0.75;exitDx=0;exitDy=0;dashed=1;endArrow=open;endFill=0;" parent="1" source="0jWFzgtapY-xI2TfRLbG-40" edge="1">
          <mxGeometry relative="1" as="geometry">
            <mxPoint x="390" y="667" as="targetPoint" />
          </mxGeometry>
        </mxCell>
        <mxCell id="0jWFzgtapY-xI2TfRLbG-40" value="" style="rounded=0;whiteSpace=wrap;html=1;" parent="1" vertex="1">
          <mxGeometry x="670" y="620" width="20" height="62.5" as="geometry" />
        </mxCell>
        <mxCell id="0jWFzgtapY-xI2TfRLbG-41" value="" style="rounded=0;whiteSpace=wrap;html=1;" parent="1" vertex="1">
          <mxGeometry x="665" y="707.5" width="20" height="62.5" as="geometry" />
        </mxCell>
        <mxCell id="0jWFzgtapY-xI2TfRLbG-43" value="" style="endArrow=classic;html=1;rounded=0;exitX=0;exitY=1;exitDx=0;exitDy=0;entryX=1;entryY=1;entryDx=0;entryDy=0;" parent="1" source="0jWFzgtapY-xI2TfRLbG-5" target="0jWFzgtapY-xI2TfRLbG-5" edge="1">
          <mxGeometry width="50" height="50" relative="1" as="geometry">
            <mxPoint x="250" y="280" as="sourcePoint" />
            <mxPoint x="300" y="230" as="targetPoint" />
          </mxGeometry>
        </mxCell>
        <mxCell id="0jWFzgtapY-xI2TfRLbG-44" value="" style="endArrow=open;html=1;rounded=0;exitX=1;exitY=0.75;exitDx=0;exitDy=0;entryX=0;entryY=0.75;entryDx=0;entryDy=0;dashed=1;endFill=0;" parent="1" source="0jWFzgtapY-xI2TfRLbG-6" target="0jWFzgtapY-xI2TfRLbG-6" edge="1">
          <mxGeometry width="50" height="50" relative="1" as="geometry">
            <mxPoint x="250" y="280" as="sourcePoint" />
            <mxPoint x="300" y="230" as="targetPoint" />
          </mxGeometry>
        </mxCell>
        <mxCell id="0jWFzgtapY-xI2TfRLbG-45" value="" style="endArrow=classic;html=1;rounded=0;exitX=0;exitY=1;exitDx=0;exitDy=0;entryX=1;entryY=1;entryDx=0;entryDy=0;" parent="1" edge="1">
          <mxGeometry width="50" height="50" relative="1" as="geometry">
            <mxPoint x="210" y="299.31" as="sourcePoint" />
            <mxPoint x="360" y="299.31" as="targetPoint" />
          </mxGeometry>
        </mxCell>
        <mxCell id="0jWFzgtapY-xI2TfRLbG-46" value="" style="endArrow=open;html=1;rounded=0;exitX=1;exitY=0.75;exitDx=0;exitDy=0;entryX=0;entryY=0.75;entryDx=0;entryDy=0;dashed=1;endFill=0;" parent="1" edge="1">
          <mxGeometry width="50" height="50" relative="1" as="geometry">
            <mxPoint x="360" y="335" as="sourcePoint" />
            <mxPoint x="210" y="335" as="targetPoint" />
          </mxGeometry>
        </mxCell>
        <mxCell id="0jWFzgtapY-xI2TfRLbG-47" value="" style="endArrow=open;html=1;rounded=0;exitX=1;exitY=0.75;exitDx=0;exitDy=0;entryX=0;entryY=0.75;entryDx=0;entryDy=0;dashed=1;endFill=0;" parent="1" edge="1">
          <mxGeometry width="50" height="50" relative="1" as="geometry">
            <mxPoint x="360" y="409.31" as="sourcePoint" />
            <mxPoint x="210" y="409.31" as="targetPoint" />
          </mxGeometry>
        </mxCell>
        <mxCell id="0jWFzgtapY-xI2TfRLbG-48" value="" style="endArrow=classic;html=1;rounded=0;exitX=0;exitY=1;exitDx=0;exitDy=0;entryX=1;entryY=1;entryDx=0;entryDy=0;" parent="1" edge="1">
          <mxGeometry width="50" height="50" relative="1" as="geometry">
            <mxPoint x="210" y="379.31" as="sourcePoint" />
            <mxPoint x="360" y="379.31" as="targetPoint" />
          </mxGeometry>
        </mxCell>
        <mxCell id="0jWFzgtapY-xI2TfRLbG-49" style="edgeStyle=orthogonalEdgeStyle;rounded=0;orthogonalLoop=1;jettySize=auto;html=1;exitX=0;exitY=0;exitDx=0;exitDy=0;entryX=1.155;entryY=0.861;entryDx=0;entryDy=0;entryPerimeter=0;" parent="1" source="0jWFzgtapY-xI2TfRLbG-9" target="0jWFzgtapY-xI2TfRLbG-33" edge="1">
          <mxGeometry relative="1" as="geometry">
            <Array as="points">
              <mxPoint x="640" y="200" />
              <mxPoint x="640" y="242" />
              <mxPoint x="545" y="242" />
            </Array>
          </mxGeometry>
        </mxCell>
        <mxCell id="0jWFzgtapY-xI2TfRLbG-50" style="edgeStyle=orthogonalEdgeStyle;rounded=0;orthogonalLoop=1;jettySize=auto;html=1;exitX=0;exitY=0;exitDx=0;exitDy=0;entryX=1.155;entryY=0.861;entryDx=0;entryDy=0;entryPerimeter=0;" parent="1" edge="1">
          <mxGeometry relative="1" as="geometry">
            <mxPoint x="525" y="284" as="sourcePoint" />
            <mxPoint x="527" y="326" as="targetPoint" />
            <Array as="points">
              <mxPoint x="639" y="284" />
              <mxPoint x="639" y="326" />
              <mxPoint x="544" y="326" />
            </Array>
          </mxGeometry>
        </mxCell>
        <mxCell id="0jWFzgtapY-xI2TfRLbG-51" value="" style="endArrow=classic;html=1;rounded=0;" parent="1" edge="1">
          <mxGeometry width="50" height="50" relative="1" as="geometry">
            <mxPoint x="390" y="470" as="sourcePoint" />
            <mxPoint x="505" y="470" as="targetPoint" />
          </mxGeometry>
        </mxCell>
        <mxCell id="0jWFzgtapY-xI2TfRLbG-52" value="" style="endArrow=open;html=1;rounded=0;entryX=0;entryY=0.75;entryDx=0;entryDy=0;dashed=1;endFill=0;" parent="1" edge="1">
          <mxGeometry width="50" height="50" relative="1" as="geometry">
            <mxPoint x="500" y="500" as="sourcePoint" />
            <mxPoint x="385" y="500" as="targetPoint" />
          </mxGeometry>
        </mxCell>
        <mxCell id="0jWFzgtapY-xI2TfRLbG-38" value="" style="rounded=0;whiteSpace=wrap;html=1;" parent="1" vertex="1">
          <mxGeometry x="506" y="445.5" width="20" height="62.5" as="geometry" />
        </mxCell>
        <mxCell id="0jWFzgtapY-xI2TfRLbG-53" value="" style="endArrow=classic;html=1;rounded=0;" parent="1" edge="1">
          <mxGeometry width="50" height="50" relative="1" as="geometry">
            <mxPoint x="391" y="553.6" as="sourcePoint" />
            <mxPoint x="506" y="553.6" as="targetPoint" />
          </mxGeometry>
        </mxCell>
        <mxCell id="0jWFzgtapY-xI2TfRLbG-54" value="" style="endArrow=open;html=1;rounded=0;entryX=0;entryY=0.75;entryDx=0;entryDy=0;dashed=1;endFill=0;" parent="1" edge="1">
          <mxGeometry width="50" height="50" relative="1" as="geometry">
            <mxPoint x="501" y="583.6" as="sourcePoint" />
            <mxPoint x="386" y="583.6" as="targetPoint" />
          </mxGeometry>
        </mxCell>
        <mxCell id="0jWFzgtapY-xI2TfRLbG-59" style="edgeStyle=orthogonalEdgeStyle;rounded=0;orthogonalLoop=1;jettySize=auto;html=1;exitX=1;exitY=0.25;exitDx=0;exitDy=0;entryX=0;entryY=0.25;entryDx=0;entryDy=0;" parent="1" edge="1">
          <mxGeometry relative="1" as="geometry">
            <mxPoint x="385" y="730" as="sourcePoint" />
            <mxPoint x="670" y="731" as="targetPoint" />
          </mxGeometry>
        </mxCell>
        <mxCell id="0jWFzgtapY-xI2TfRLbG-60" style="edgeStyle=orthogonalEdgeStyle;rounded=0;orthogonalLoop=1;jettySize=auto;html=1;exitX=0;exitY=0.75;exitDx=0;exitDy=0;dashed=1;endArrow=open;endFill=0;" parent="1" edge="1">
          <mxGeometry relative="1" as="geometry">
            <mxPoint x="390" y="762" as="targetPoint" />
            <mxPoint x="670" y="762" as="sourcePoint" />
          </mxGeometry>
        </mxCell>
      </root>
    </mxGraphModel>
  </diagram>
</mxfile>
